<?xml version="1.0" encoding="UTF-8" standalone="no"?>
<!-- Created with Inkscape (http://www.inkscape.org/) -->

<svg
   xmlns:dc="http://purl.org/dc/elements/1.1/"
   xmlns:cc="http://creativecommons.org/ns#"
   xmlns:rdf="http://www.w3.org/1999/02/22-rdf-syntax-ns#"
   xmlns:svg="http://www.w3.org/2000/svg"
   xmlns="http://www.w3.org/2000/svg"
   xmlns:sodipodi="http://sodipodi.sourceforge.net/DTD/sodipodi-0.dtd"
   xmlns:inkscape="http://www.inkscape.org/namespaces/inkscape"
   width="190"
   height="50"
   id="svg2"
   sodipodi:version="0.32"
   inkscape:version="0.47 r22583"
   version="1.0"
   sodipodi:docname="logo.svg"
   inkscape:output_extension="org.inkscape.output.svg.inkscape">
  <defs
     id="defs4">
    <inkscape:perspective
       sodipodi:type="inkscape:persp3d"
       inkscape:vp_x="0 : 526.18109 : 1"
       inkscape:vp_y="0 : 1000 : 0"
       inkscape:vp_z="744.09448 : 526.18109 : 1"
       inkscape:persp3d-origin="372.04724 : 350.78739 : 1"
       id="perspective10" />
    <inkscape:perspective
       id="perspective2619"
       inkscape:persp3d-origin="353.97549 : 171.98033 : 1"
       inkscape:vp_z="707.95099 : 257.97049 : 1"
       inkscape:vp_y="0 : 1000 : 0"
       inkscape:vp_x="0 : 257.97049 : 1"
       sodipodi:type="inkscape:persp3d" />
  </defs>
  <sodipodi:namedview
     id="base"
     pagecolor="#ffffff"
     bordercolor="#666666"
     borderopacity="1.0"
     inkscape:pageopacity="0.0"
     inkscape:pageshadow="2"
     inkscape:zoom="1.505167"
     inkscape:cx="190.89633"
     inkscape:cy="-18.168368"
     inkscape:document-units="px"
     inkscape:current-layer="layer1"
     showgrid="false"
     width="792px"
     inkscape:window-width="1440"
     inkscape:window-height="846"
     inkscape:window-x="0"
     inkscape:window-y="25"
     showguides="true"
     inkscape:guide-bbox="true"
     inkscape:window-maximized="1">
    <sodipodi:guide
       orientation="1,0"
       position="242.83553,77.94012"
       id="guide2518" />
    <sodipodi:guide
       orientation="1,0"
       position="536.94126,82.48366"
       id="guide2520" />
  </sodipodi:namedview>
  <metadata
     id="metadata7">
    <rdf:RDF>
      <cc:Work
         rdf:about="">
        <dc:format>image/svg+xml</dc:format>
        <dc:type
           rdf:resource="http://purl.org/dc/dcmitype/StillImage" />
        <dc:title />
        <dc:creator>
          <cc:Agent>
            <dc:title>Lcdo. Irwin Borjas</dc:title>
          </cc:Agent>
        </dc:creator>
        <dc:description>Dios te pido protección,
que tu abrazo me rodee 
como un escudo
Al que nada ni nadie
Pueden atravesaar.</dc:description>
      </cc:Work>
    </rdf:RDF>
  </metadata>
  <g
     inkscape:label="Capa 1"
     inkscape:groupmode="layer"
     id="layer1"
     transform="translate(-4.3528469,-179.17645)">
    <g
       id="g2869"
       transform="matrix(0.47016582,0,0,0.45541746,-85.161191,152.54286)">
      <g
         transform="translate(35.289193,58.481393)"
         id="g2384">
        <path
           id="path2386"
           d="m 236.177,80.96 c 1.891,0 3.525,-0.268 4.904,-0.803 1.378,-0.535 2.575,-1.236 3.589,-2.102 1.015,-0.866 1.857,-1.846 2.529,-2.939 0.672,-1.094 1.225,-2.199 1.658,-3.315 l 8.784,3.315 c -0.707,1.732 -1.629,3.43 -2.77,5.093 -1.14,1.664 -2.563,3.133 -4.271,4.409 -1.709,1.276 -3.743,2.307 -6.102,3.093 -2.357,0.786 -5.133,1.179 -8.322,1.179 -4.171,0 -7.782,-0.621 -10.835,-1.863 -3.055,-1.242 -5.577,-2.974 -7.571,-5.195 -1.994,-2.222 -3.476,-4.859 -4.443,-7.913 -0.969,-3.053 -1.453,-6.392 -1.453,-10.015 0,-3.76 0.484,-7.155 1.453,-10.186 0.968,-3.03 2.433,-5.611 4.393,-7.742 1.959,-2.13 4.438,-3.771 7.434,-4.922 2.996,-1.15 6.522,-1.726 10.579,-1.726 3.145,0 5.896,0.331 8.254,0.991 2.358,0.661 4.397,1.589 6.118,2.786 1.72,1.196 3.145,2.609 4.271,4.238 1.128,1.629 2.012,3.424 2.649,5.383 l -8.887,2.427 c -0.319,-1.025 -0.81,-2.011 -1.471,-2.957 -0.66,-0.945 -1.499,-1.783 -2.512,-2.512 -1.014,-0.729 -2.205,-1.316 -3.572,-1.76 -1.366,-0.444 -2.917,-0.667 -4.647,-0.667 -2.438,0 -4.535,0.393 -6.289,1.179 -1.755,0.786 -3.196,1.909 -4.324,3.367 -1.128,1.458 -1.96,3.208 -2.495,5.247 -0.536,2.04 -0.803,4.324 -0.803,6.853 0,2.507 0.268,4.802 0.803,6.887 0.535,2.085 1.373,3.879 2.512,5.383 1.14,1.504 2.604,2.678 4.393,3.521 1.789,0.845 3.937,1.266 6.444,1.266 z"
           style="fill:#452f27" />
        <path
           id="path2388"
           d="m 293.031,88.207 -4.272,-12.305 -18.354,0 -4.272,12.305 -10.083,0 17.568,-48.159 11.896,0 17.5,48.159 -9.983,0 z M 281.752,54.471 c -0.272,-0.797 -0.542,-1.601 -0.803,-2.41 -0.262,-0.809 -0.49,-1.549 -0.684,-2.222 -0.194,-0.672 -0.354,-1.225 -0.479,-1.658 -0.125,-0.433 -0.2,-0.672 -0.222,-0.718 -0.023,0.068 -0.091,0.319 -0.205,0.752 -0.114,0.433 -0.269,0.98 -0.461,1.641 -0.194,0.661 -0.422,1.396 -0.685,2.205 -0.262,0.809 -0.529,1.612 -0.803,2.41 l -4.751,13.843 13.843,0 -4.75,-13.843 z"
           style="fill:#452f27" />
        <path
           id="path2390"
           d="M 333.616,88.207 312.631,51.122 c 0.113,1.003 0.216,2.005 0.308,3.008 0.091,0.866 0.165,1.8 0.222,2.803 0.058,1.003 0.085,1.96 0.085,2.871 l 0,28.403 -8.955,0 0,-48.16 11.52,0 21.294,37.393 c -0.114,-0.957 -0.217,-1.959 -0.308,-3.008 -0.092,-0.889 -0.166,-1.891 -0.223,-3.008 -0.057,-1.116 -0.085,-2.244 -0.085,-3.384 l 0,-27.993 8.955,0 0,48.159 -11.828,10e-4 0,0 z"
           style="fill:#452f27" />
        <path
           id="path2392"
           d="m 383.635,88.207 -4.272,-12.305 -18.353,0 -4.272,12.305 -10.083,0 17.568,-48.159 11.895,0 17.5,48.159 -9.983,0 z m -11.28,-33.736 c -0.273,-0.797 -0.542,-1.601 -0.804,-2.41 -0.263,-0.809 -0.49,-1.549 -0.685,-2.222 -0.192,-0.672 -0.354,-1.225 -0.479,-1.658 -0.125,-0.433 -0.199,-0.672 -0.222,-0.718 -0.023,0.068 -0.093,0.319 -0.205,0.752 -0.114,0.433 -0.27,0.98 -0.462,1.641 -0.193,0.661 -0.423,1.396 -0.685,2.205 -0.262,0.809 -0.529,1.612 -0.803,2.41 l -4.751,13.843 13.843,0 -4.747,-13.843 z"
           style="fill:#452f27" />
        <path
           id="path2394"
           d="m 394.893,88.207 0,-48.16 10.083,0 0,48.159 -10.083,10e-4 0,0 z"
           style="fill:#452f27" />
        <path
           id="path2396"
           d="m 449.083,88.207 0,-29.19 c 0,-1.162 0.017,-2.358 0.052,-3.589 0.032,-1.229 0.073,-2.358 0.119,-3.384 0.067,-1.208 0.125,-2.381 0.171,-3.521 -0.479,1.8 -0.936,3.509 -1.367,5.127 -0.184,0.684 -0.376,1.39 -0.581,2.119 -0.205,0.729 -0.405,1.436 -0.598,2.119 -0.194,0.684 -0.384,1.322 -0.564,1.914 -0.183,0.593 -0.342,1.105 -0.479,1.538 l -8.682,26.865 -7.178,0 -8.682,-26.865 c -0.138,-0.433 -0.291,-0.945 -0.462,-1.538 -0.172,-0.592 -0.354,-1.229 -0.547,-1.914 -0.193,-0.685 -0.394,-1.39 -0.599,-2.119 -0.205,-0.729 -0.41,-1.436 -0.615,-2.119 -0.456,-1.618 -0.935,-3.327 -1.436,-5.127 0.067,1.322 0.137,2.621 0.205,3.896 0.045,1.094 0.091,2.245 0.137,3.452 0.045,1.208 0.068,2.256 0.068,3.145 l 0,29.189 -8.955,0 0,-48.158 13.501,0 8.612,26.934 c 0.229,0.707 0.474,1.572 0.734,2.598 0.261,1.026 0.52,2.017 0.77,2.974 0.273,1.117 0.569,2.279 0.89,3.486 0.317,-1.185 0.626,-2.324 0.923,-3.418 0.137,-0.479 0.273,-0.968 0.41,-1.47 0.137,-0.501 0.272,-0.991 0.41,-1.47 0.137,-0.479 0.272,-0.934 0.41,-1.367 0.137,-0.433 0.262,-0.82 0.375,-1.162 l 8.478,-27.104 13.433,0 0,48.159 -8.953,0 z"
           style="fill:#452f27" />
        <path
           id="path2398"
           d="m 496.195,88.207 -4.271,-12.305 -18.354,0 -4.271,12.305 -10.083,0 17.567,-48.159 11.896,0 17.5,48.159 -9.984,0 z M 484.917,54.471 c -0.273,-0.797 -0.543,-1.601 -0.805,-2.41 -0.262,-0.809 -0.49,-1.549 -0.684,-2.222 -0.193,-0.672 -0.354,-1.225 -0.479,-1.658 -0.125,-0.433 -0.198,-0.672 -0.222,-0.718 -0.023,0.068 -0.092,0.319 -0.205,0.752 -0.114,0.433 -0.269,0.98 -0.462,1.641 -0.193,0.661 -0.422,1.396 -0.684,2.205 -0.263,0.809 -0.529,1.612 -0.804,2.41 l -4.751,13.843 13.843,0 -4.747,-13.843 z"
           style="fill:#452f27" />
      </g>
      <g
         transform="translate(35.289193,58.481393)"
         id="g2444">
        <path
           id="path2446"
           d="m 552.987,44.139 c -1.013,-2.75 -5.645,-9.408 -6.656,-10.421 -1.016,-1.014 -3.328,-4.053 -3.907,-5.211 -0.578,-1.158 -5.065,-3.619 -5.937,-3.907 -0.866,-0.29 -1.445,-2.606 -1.445,-2.606 0,0 1.881,0.434 2.314,0.144 0.434,-0.29 1.014,-1.882 0.578,-3.618 -0.436,-1.736 -1.303,-5.065 -2.461,-7.525 -1.157,-2.462 -3.186,-5.067 -5.645,-5.791 -2.462,-0.724 -7.237,0 -9.698,1.013 -2.461,1.014 -3.764,4.343 -3.909,6.369 -0.145,2.027 1.014,3.185 1.304,3.62 l 0.029,0.842 c 0.208,0.369 0.595,1.133 0.626,1.745 0.005,0.104 0.013,0.214 0.021,0.328 l -1.011,3.553 c 0,0 -0.257,1.168 0.627,1.197 0.269,0.009 0.531,-0.143 0.771,-0.135 0.31,0.011 0.571,0.069 0.747,0.119 0.283,1.229 1.342,3.952 1.966,5.048 0.771,0.293 2.531,-0.134 3.014,0.28 0.308,0.265 0.594,0.771 0.854,1.414 -0.715,0.557 -1.663,1.185 -1.663,1.185 l -2.489,1.325 -4.403,3.067 -1.75,0.764 c -2.189,0.648 -5.469,1.595 -5.948,1.595 -0.729,0 -5.003,-0.372 -7.021,-0.459 -2.015,-0.087 -9.646,-0.85 -10.853,-1.42 -1.209,-0.571 -4.117,-1.917 -5.485,-2.01 -1.369,-0.09 -4.502,0.231 -5.87,0.503 -1.368,0.274 -4.466,1.993 -4.789,2.543 -0.354,0.61 -2.938,2.419 -1.114,2.966 1.824,0.549 6.753,-0.025 8.943,0.067 2.188,0.091 5.748,0.182 7.207,1.095 1.461,0.912 11.132,5.942 15.164,5.993 3.405,0.043 6.258,-0.812 8.635,-1.775 0.53,-0.134 1.063,-0.266 1.479,-0.386 2.829,-0.822 5.32,-1.555 5.32,-1.555 l 0.685,0.025 c 1.434,-0.513 3.347,-0.773 5.521,0.051 7.188,2.73 13.511,14.042 13.511,14.042 -5.061,-6.988 -11.059,-12.495 -14.574,-13.509 -0.755,-0.217 -1.519,-0.29 -2.252,-0.28 l -1.414,0.154 c 0,0 -2.803,0.239 -3.934,2.435 -0.31,0.602 -0.36,1.099 -0.751,1.891 0.112,-0.056 0.025,0.22 -0.089,1.462 -0.144,1.594 0.29,4.199 1.448,6.515 1.159,2.316 4.343,7.382 6.079,9.842 1.736,2.461 5.646,9.554 5.646,9.554 0,0 0.726,1.591 0,2.75 -0.725,1.158 -4.95,2.442 -5.967,2.442 -1.013,0 -3.007,1.032 -3.587,1.032 -0.579,0 -1.881,0.578 -3.329,0.578 -1.444,0 -1.445,2.027 -0.29,2.027 1.159,0 3.477,-0.145 3.477,-0.145 l 8.396,0 c -0.58,0.435 -5.935,3.185 -7.093,3.619 -1.158,0.435 -1.882,2.75 -1.303,3.185 0.58,0.434 1.736,0 1.736,0 0,0 0,0 0.868,0.29 0.868,0.29 1.302,0.29 1.302,0.29 0,0 0,0 0.579,0.145 0.579,0.144 1.594,-0.435 1.594,-0.435 0,0 0,0 0.577,0.29 0.579,0.289 1.737,-0.58 1.737,-0.58 0,0 1.737,0 2.17,-0.289 0.438,-0.29 6.515,-1.738 8.54,-2.316 2.028,-0.58 3.187,-1.592 4.055,-2.317 0.867,-0.723 -0.58,-2.749 -0.58,-2.749 l 0.16,0.049 c -2.161,-1.933 -5.814,-6.346 -7.69,-15.136 -1.996,-9.354 -6.78,-14.414 -8.513,-15.794 0,0 7.887,5.41 9.442,14.145 1.557,8.718 4,13.25 7.458,16.999 l 1.024,0.315 c 5.501,0 8.395,-7.381 9.408,-11.144 1.014,-3.764 1.734,-11.435 1.734,-14.33 0.003,-2.901 -2.31,-12.309 -3.326,-15.059 z"
           style="fill:#beac83" />
        <path
           id="path2448"
           d="m 541.844,61.508 c 0,0 4.341,4.343 4.775,5.356 0.435,1.013 4.054,2.026 6.076,2.17 2.026,0.146 5.646,1.158 6.229,-0.578 0.576,-1.738 0.288,-3.909 -0.87,-4.632 -1.157,-0.723 -1.882,-0.868 -1.882,-0.868 l -0.288,1.446 c 0,0 -1.015,0.29 -1.884,0.29 -0.867,0 -4.053,-2.459 -5.789,-2.459 -1.737,0 -6.367,-0.725 -6.367,-0.725 z"
           style="fill:#452f27" />
        <path
           id="path2450"
           d="m 525.105,32.531 c 0,0 -1.427,-0.712 -2.374,-0.807 -0.944,-0.094 -2.111,-0.573 -2.699,0.402 -0.589,0.975 -0.424,2.154 0.702,2.783 1.125,0.63 5.426,5.684 5.55,7.014 0.127,1.33 2.444,2.933 3.391,1.243 0.943,-1.688 0.518,-3.1 0.518,-3.1 0,0 -2.008,-3.946 -3.077,-5.372 -1.077,-1.424 -2.011,-2.163 -2.011,-2.163 z"
           style="fill:#452f27" />
      </g>
      <g
         transform="translate(35.289193,58.481393)"
         id="g2452">
        <path
           id="path2454"
           d="m 161.325,43.894 c 1.013,-2.75 5.646,-9.41 6.658,-10.422 1.014,-1.014 3.329,-4.052 3.907,-5.212 0.58,-1.157 5.065,-3.618 5.936,-3.907 0.867,-0.29 1.446,-2.606 1.446,-2.606 0,0 -1.881,0.435 -2.314,0.146 -0.436,-0.29 -1.014,-1.882 -0.579,-3.619 0.435,-1.738 1.304,-5.066 2.461,-7.527 1.158,-2.461 3.185,-5.066 5.646,-5.791 2.46,-0.724 7.237,0 9.697,1.014 2.461,1.013 3.763,4.343 3.908,6.369 0.146,2.027 -1.014,3.185 -1.304,3.619 l -0.029,0.841 c -0.205,0.369 -0.594,1.136 -0.625,1.747 -0.005,0.102 -0.014,0.213 -0.023,0.328 l 1.012,3.552 c 0,0 0.256,1.169 -0.627,1.197 -0.27,0.009 -0.533,-0.143 -0.771,-0.134 -0.31,0.009 -0.573,0.068 -0.747,0.119 -0.284,1.229 -1.342,3.951 -1.967,5.047 -0.769,0.293 -2.529,-0.132 -3.013,0.28 -0.31,0.264 -0.594,0.771 -0.854,1.415 0.715,0.557 1.663,1.184 1.663,1.184 l 2.489,1.327 4.403,3.065 1.75,0.764 c 2.19,0.649 5.469,1.594 5.948,1.594 0.729,0 5.003,-0.372 7.02,-0.459 2.016,-0.087 9.646,-0.849 10.854,-1.419 1.208,-0.572 4.116,-1.918 5.484,-2.008 1.369,-0.091 4.5,0.229 5.869,0.503 1.369,0.273 4.466,1.992 4.789,2.543 0.356,0.609 2.94,2.419 1.115,2.966 -1.824,0.548 -6.753,-0.027 -8.942,0.065 -2.189,0.091 -5.748,0.183 -7.208,1.095 -1.459,0.914 -11.132,5.942 -15.163,5.993 -3.403,0.043 -6.259,-0.81 -8.635,-1.775 -0.532,-0.133 -1.063,-0.265 -1.479,-0.386 -2.829,-0.82 -5.321,-1.553 -5.321,-1.553 l -0.683,0.025 c -1.435,-0.513 -3.349,-0.775 -5.521,0.05 -7.188,2.73 -13.509,14.042 -13.509,14.042 5.058,-6.987 11.057,-12.493 14.573,-13.508 0.755,-0.218 1.52,-0.292 2.253,-0.28 l 1.413,0.154 c 0,0 2.804,0.238 3.933,2.434 0.309,0.602 0.362,1.1 0.75,1.892 -0.11,-0.056 -0.024,0.22 0.088,1.462 0.146,1.592 -0.29,4.198 -1.447,6.513 -1.157,2.317 -4.342,7.382 -6.08,9.842 -1.735,2.462 -5.645,9.554 -5.645,9.554 0,0 -0.725,1.592 0,2.749 0.723,1.158 4.952,2.444 5.966,2.444 1.014,0 3.008,1.03 3.587,1.03 0.579,0 1.88,0.58 3.328,0.58 1.447,0 1.448,2.026 0.29,2.026 -1.158,0 -3.474,-0.146 -3.474,-0.146 l -8.396,0 c 0.579,0.434 5.935,3.186 7.093,3.62 1.158,0.434 1.882,2.749 1.303,3.184 -0.58,0.433 -1.736,0 -1.736,0 0,0 0,0 -0.868,0.29 -0.869,0.289 -1.303,0.289 -1.303,0.289 0,0 0,0 -0.579,0.146 -0.58,0.146 -1.594,-0.434 -1.594,-0.434 0,0 0,0 -0.579,0.289 -0.578,0.29 -1.735,-0.579 -1.735,-0.579 0,0 -1.736,0 -2.171,-0.29 -0.435,-0.29 -6.515,-1.738 -8.54,-2.316 -2.025,-0.578 -3.185,-1.592 -4.052,-2.316 -0.868,-0.724 0.578,-2.75 0.578,-2.75 l -0.16,0.049 c 2.161,-1.933 5.815,-6.345 7.692,-15.137 1.997,-9.353 6.78,-14.414 8.512,-15.793 0,0 -7.886,5.41 -9.442,14.144 -1.557,8.718 -4.001,13.251 -7.458,17 l -1.023,0.315 c -5.5,0 -8.396,-7.383 -9.408,-11.146 -1.013,-3.764 -1.736,-11.435 -1.736,-14.33 0,-2.895 2.311,-12.303 3.326,-15.053 z"
           style="fill:#beac83;fill-opacity:1" />
        <path
           id="path2456"
           d="m 172.469,61.262 c 0,0 -4.344,4.342 -4.777,5.355 -0.436,1.012 -4.053,2.026 -6.078,2.171 -2.026,0.145 -5.646,1.157 -6.226,-0.579 -0.578,-1.738 -0.289,-3.907 0.868,-4.633 1.158,-0.723 1.883,-0.868 1.883,-0.868 l 0.29,1.448 c 0,0 1.013,0.29 1.881,0.29 0.868,0 4.053,-2.46 5.79,-2.46 1.737,0 6.369,-0.724 6.369,-0.724 z"
           style="fill:#452f27" />
        <path
           id="path2458"
           d="m 189.207,32.283 c 0,0 1.427,-0.711 2.373,-0.806 0.946,-0.094 2.111,-0.573 2.702,0.401 0.588,0.975 0.422,2.154 -0.705,2.783 -1.125,0.631 -5.425,5.684 -5.55,7.014 -0.125,1.331 -2.444,2.933 -3.388,1.244 -0.943,-1.688 -0.52,-3.101 -0.52,-3.101 0,0 2.008,-3.945 3.08,-5.371 1.073,-1.426 2.008,-2.164 2.008,-2.164 z"
           style="fill:#452f27" />
      </g>
      <g
         transform="translate(35.289193,58.481393)"
         id="g2460">
        <path
           id="path2462"
           d="m 267.825,25.457 c -0.01,0.01 4.684,-0.3 12.706,0.374 7.878,0.272 19.696,2.462 32.021,-1.155 5.655,-2.078 12.179,-6.377 11.734,-13.399 0.191,-1.872 0.174,-3.719 0.766,-6.113 0.098,-1.208 1.601,-3.202 3.066,-3.686 1.277,-0.453 2.5,-0.693 3.587,-0.76 4.493,-0.361 8.252,0.494 12.082,0.157 7.945,-0.352 16.345,-1.549 25.103,-0.361 4.146,0.458 9.616,2.377 11.897,7.068 2.253,4.602 1.356,9.131 1.628,12.928 -0.389,8.489 9.359,9.891 15.818,9.854 6.959,0.032 13.462,-0.398 19.325,0.048 11.751,0.374 21.251,0.884 28.714,1.099 14.921,0.511 21.65,0.313 21.647,0.344 0.007,0.033 -17.941,0.23 -41.063,0.148 -5.74,0.095 -11.959,0 -18.015,0.294 -6.148,0.404 -12.61,1.307 -19.379,0.151 -3.209,-0.738 -7.312,-2.175 -9.181,-5.836 -1.905,-3.491 -1.757,-7.005 -1.935,-9.89 0.103,-6 -2.054,-9.769 -6.57,-10.854 -9.21,-2.049 -16.336,-0.717 -20.885,-0.705 -4.698,0.26 -7.45,0.349 -10.015,0.198 -2.621,-0.2 -4.649,-0.662 -8.068,-0.729 -1.575,0.112 -3.979,-0.04 -4.184,1.543 -0.714,2.262 -0.558,5.665 -1.604,9.963 -3.728,8.794 -12.932,11.667 -20.198,12.42 -7.545,0.64 -14.381,-0.215 -20.12,-0.931 -11.446,-1.753 -18.863,-2.25 -18.877,-2.17 z"
           style="fill:#452f27" />
      </g>
      <path
         id="text2514"
         d="m 258.22383,168.08858 0,-8.57828 c -1e-5,-0.31027 0.003,-0.62663 0.009,-0.94909 0.006,-0.32243 0.0152,-0.6175 0.0274,-0.8852 0.0122,-0.31027 0.0274,-0.61142 0.0456,-0.90346 -0.0852,0.31029 -0.1734,0.61753 -0.26465,0.92171 -0.0791,0.26162 -0.16731,0.54148 -0.26464,0.83958 -0.0913,0.29203 -0.18253,0.55668 -0.27378,0.79394 l -3.3218,8.7608 -1.22286,0 -3.36743,-8.7608 c -0.0365,-0.0913 -0.0761,-0.19771 -0.11864,-0.3194 -0.0365,-0.12167 -0.0791,-0.24943 -0.12776,-0.38329 -0.0426,-0.13992 -0.0882,-0.27985 -0.13689,-0.41978 -0.0426,-0.14601 -0.0852,-0.28898 -0.12776,-0.42892 -0.10343,-0.32243 -0.20381,-0.65705 -0.30115,-1.00384 0.006,0.34071 0.0152,0.67836 0.0274,1.01297 0.0122,0.28595 0.0213,0.5871 0.0274,0.90345 0.006,0.31029 0.009,0.58407 0.009,0.82133 l 0,8.57828 -1.55139,0 0,-12.85829 2.29058,0 3.42219,8.91593 c 0.0426,0.12168 0.0943,0.27986 0.15514,0.47454 0.0608,0.18861 0.11862,0.38329 0.17339,0.58406 0.0547,0.20077 0.10342,0.39241 0.14601,0.57492 0.0487,0.17644 0.0821,0.31332 0.10038,0.41067 0.0182,-0.0974 0.0517,-0.23727 0.10039,-0.41979 0.0487,-0.18252 0.10342,-0.37416 0.16426,-0.57493 0.0669,-0.20077 0.1308,-0.39545 0.19165,-0.58405 0.0608,-0.1886 0.11558,-0.34374 0.16426,-0.46542 l 3.35831,-8.91593 2.23582,0 0,12.85829 -1.56964,0 m 4.65417,0 0,-12.85829 9.75551,0 0,1.42363 -8.01247,0 0,4.12487 7.46492,0 0,1.40538 -7.46492,0 0,4.48078 8.38663,0 0,1.42363 -10.12967,0 m 17.52159,-11.43466 0,11.43466 -1.7339,0 0,-11.43466 -4.41691,0 0,-1.42363 10.56771,0 0,1.42363 -4.4169,0 m 14.11766,11.43466 -1.46926,-3.75984 -5.85878,0 -1.47838,3.75984 -1.80692,0 5.24735,-12.85829 1.98031,0 5.16522,12.85829 -1.77954,0 m -3.64121,-9.3631 c -0.0973,-0.24335 -0.19164,-0.48974 -0.2829,-0.73919 -0.0852,-0.24943 -0.16123,-0.47454 -0.22814,-0.67532 -0.0669,-0.20684 -0.12473,-0.37719 -0.17339,-0.51104 -0.0426,-0.13992 -0.0669,-0.22509 -0.073,-0.25552 -0.0122,0.0304 -0.0396,0.1156 -0.0821,0.25552 -0.0426,0.13994 -0.10039,0.31333 -0.17339,0.52017 -0.0669,0.20686 -0.14602,0.43501 -0.23727,0.68444 -0.0852,0.24945 -0.1734,0.49584 -0.26465,0.73919 l -1.64265,4.22526 4.80931,0 -1.65178,-4.24351 m 18.07827,2.80163 c -10e-6,1.07077 -0.16124,2.01681 -0.48367,2.83813 -0.32246,0.81524 -0.76354,1.49968 -1.32325,2.05331 -0.55972,0.54755 -1.22287,0.9643 -1.98943,1.25024 -0.76049,0.27986 -1.58181,0.41979 -2.46397,0.41979 l -4.80931,0 0,-12.85829 4.25263,0 c 0.99167,1e-5 1.90425,0.12473 2.73775,0.37415 0.83957,0.24337 1.56051,0.62361 2.16282,1.14073 0.6023,0.51106 1.07076,1.16204 1.40538,1.95293 0.34069,0.79091 0.51104,1.73392 0.51105,2.82901 m -1.75216,0 c -10e-6,-0.86999 -0.12473,-1.61222 -0.37416,-2.2267 -0.24945,-0.62055 -0.59927,-1.12856 -1.04947,-1.52402 -0.45022,-0.39544 -0.98864,-0.68442 -1.61527,-0.86695 -0.62665,-0.18859 -1.31413,-0.28289 -2.06244,-0.2829 l -2.4731,0 0,10.06579 2.86551,0 c 0.67531,0 1.2989,-0.10951 1.8708,-0.32853 0.57796,-0.21902 1.07684,-0.54451 1.49663,-0.97647 0.41978,-0.43195 0.74831,-0.97037 0.98559,-1.61527 0.23726,-0.64489 0.3559,-1.3932 0.35591,-2.24495 m 4.3804,6.56147 0,-12.85829 1.74303,0 0,12.85829 -1.74303,0 m 15.06674,-3.54995 c -10e-6,0.54147 -0.10648,1.04035 -0.3194,1.49664 -0.20687,0.45629 -0.52931,0.85174 -0.96734,1.18635 -0.43805,0.32853 -0.99168,0.5871 -1.6609,0.7757 -0.66315,0.18252 -1.45102,0.27377 -2.36359,0.27377 -1.60007,0 -2.84726,-0.27985 -3.74159,-0.83957 -0.89433,-0.55972 -1.46318,-1.36887 -1.70653,-2.42747 l 1.68828,-0.33766 c 0.0852,0.33462 0.21597,0.63881 0.39241,0.91258 0.17643,0.27378 0.4137,0.51105 0.71181,0.71182 0.30419,0.19469 0.67835,0.34678 1.12248,0.45629 0.44412,0.10951 0.97646,0.16427 1.59702,0.16427 0.51712,0 0.99166,-0.0426 1.42363,-0.12777 0.43195,-0.0913 0.80306,-0.22814 1.11335,-0.41066 0.31027,-0.18251 0.55058,-0.41674 0.72094,-0.70269 0.17642,-0.29202 0.26464,-0.6388 0.26465,-1.04034 -10e-6,-0.41979 -0.0974,-0.76048 -0.29203,-1.02209 -0.18861,-0.26161 -0.4563,-0.47758 -0.80307,-0.64794 -0.34679,-0.17034 -0.76049,-0.31331 -1.24111,-0.42891 -0.48064,-0.11559 -1.01298,-0.24031 -1.59702,-0.37416 -0.35896,-0.0791 -0.72095,-0.16426 -1.08598,-0.25552 -0.35895,-0.0973 -0.70573,-0.20989 -1.04034,-0.33766 -0.32853,-0.13384 -0.63881,-0.28898 -0.93084,-0.46542 -0.29202,-0.17642 -0.54451,-0.38632 -0.75744,-0.62968 -0.21294,-0.24943 -0.38024,-0.53537 -0.50192,-0.85783 -0.12168,-0.32852 -0.18252,-0.70572 -0.18252,-1.1316 0,-0.60838 0.12168,-1.12855 0.36504,-1.56052 0.24943,-0.43802 0.59317,-0.79697 1.03122,-1.07684 0.43803,-0.27985 0.95516,-0.48366 1.55139,-0.61143 0.59621,-0.12775 1.2411,-0.19163 1.93467,-0.19165 0.79698,2e-5 1.47838,0.0639 2.04419,0.19165 0.56579,0.12169 1.04337,0.30724 1.43275,0.55667 0.38936,0.24945 0.69964,0.55973 0.93084,0.93084 0.23726,0.36504 0.42586,0.79091 0.5658,1.27761 l -1.71566,0.30115 c -0.0852,-0.31026 -0.2099,-0.58708 -0.37416,-0.83045 -0.15819,-0.24334 -0.36808,-0.44715 -0.62968,-0.61143 -0.26161,-0.16425 -0.58102,-0.28897 -0.95821,-0.37416 -0.37113,-0.0852 -0.80916,-0.12775 -1.31412,-0.12776 -0.59623,1e-5 -1.09815,0.0548 -1.50576,0.16427 -0.40154,0.10344 -0.72703,0.24641 -0.97647,0.42891 -0.24335,0.18253 -0.41979,0.39851 -0.52929,0.64794 -0.10343,0.24336 -0.15515,0.50801 -0.15514,0.79394 -1e-5,0.3833 0.0943,0.69966 0.2829,0.94909 0.19468,0.24336 0.45629,0.44717 0.78482,0.61143 0.32852,0.16427 0.70877,0.30116 1.14073,0.41066 0.43195,0.10952 0.89128,0.21903 1.378,0.32853 0.39544,0.0913 0.78785,0.18557 1.17723,0.2829 0.39544,0.0913 0.77264,0.20382 1.1316,0.33766 0.35894,0.12777 0.69356,0.27986 1.00384,0.45629 0.31635,0.17644 0.59013,0.39242 0.82133,0.64793 0.23117,0.25553 0.41065,0.55668 0.53842,0.90346 0.13384,0.34679 0.20076,0.75441 0.20077,1.22286 m 7.44667,-7.88471 0,11.43466 -1.7339,0 0,-11.43466 -4.4169,0 0,-1.42363 10.5677,0 0,1.42363 -4.4169,0 m 15.47741,11.43466 -3.34005,-5.33861 -4.00624,0 0,5.33861 -1.74304,0 0,-12.85829 6.05043,0 c 0.73006,1e-5 1.37495,0.0852 1.93467,0.25552 0.56579,0.16428 1.04034,0.40459 1.42363,0.72094 0.38328,0.31637 0.6753,0.7027 0.87608,1.15898 0.20076,0.4563 0.30114,0.97039 0.30115,1.54226 -1e-5,0.40763 -0.0609,0.80917 -0.18251,1.20461 -0.11561,0.39546 -0.30117,0.75745 -0.55668,1.08598 -0.25553,0.32853 -0.58102,0.61143 -0.97646,0.8487 -0.39546,0.23728 -0.87001,0.40458 -1.42363,0.50192 l 3.65033,5.53938 -2.00768,0 m -0.25552,-9.16233 c -2e-5,-0.38936 -0.0669,-0.72702 -0.20077,-1.01297 -0.13386,-0.28593 -0.32854,-0.5232 -0.58406,-0.71182 -0.25553,-0.19467 -0.56581,-0.33764 -0.93083,-0.42891 -0.36504,-0.0973 -0.77875,-0.146 -1.24111,-0.14601 l -4.134,0 0,4.74543 4.207,0 c 0.49887,0 0.93083,-0.0608 1.29587,-0.18252 0.36503,-0.12775 0.66314,-0.30114 0.89433,-0.52017 0.23726,-0.21901 0.41065,-0.47758 0.52017,-0.7757 0.11559,-0.2981 0.17338,-0.62054 0.1734,-0.96733 m 4.86406,9.16233 0,-12.85829 1.74304,0 0,12.85829 -1.74304,0 m 14.93898,-3.62296 c -1e-5,0.65098 -0.12777,1.20766 -0.38328,1.67003 -0.25554,0.45629 -0.59927,0.83045 -1.03122,1.12248 -0.43197,0.28594 -0.93389,0.49583 -1.50576,0.62968 -0.57189,0.13384 -1.1742,0.20077 -1.80692,0.20077 l -5.21997,0 0,-12.85829 4.67243,0 c 0.7118,1e-5 1.34757,0.0609 1.90729,0.18251 0.55971,0.11561 1.03425,0.30117 1.42363,0.55668 0.38936,0.25553 0.68443,0.58102 0.88521,0.97646 0.20684,0.38938 0.31026,0.85784 0.31028,1.40538 -2e-5,0.35896 -0.0517,0.69661 -0.15514,1.01297 -0.0974,0.31637 -0.24945,0.60535 -0.45629,0.86695 -0.20078,0.25553 -0.45631,0.47759 -0.76657,0.66618 -0.30421,0.18253 -0.66011,0.31942 -1.06773,0.41067 0.51713,0.0608 0.97342,0.17948 1.36888,0.3559 0.40152,0.17644 0.73614,0.40155 1.00384,0.67532 0.26768,0.27378 0.47149,0.59318 0.61143,0.95821 0.13992,0.35895 0.20988,0.74832 0.20989,1.1681 m -2.50047,-5.90441 c -10e-6,-0.69355 -0.23728,-1.18939 -0.71182,-1.48751 -0.47455,-0.2981 -1.16203,-0.44715 -2.06243,-0.44716 l -2.9294,0 0,4.07012 2.9294,0 c 0.51103,0 0.94299,-0.0487 1.29586,-0.14602 0.35286,-0.10341 0.6388,-0.24639 0.85783,-0.42891 0.21901,-0.18859 0.37719,-0.4137 0.47454,-0.67531 0.0973,-0.2616 0.14601,-0.55667 0.14602,-0.88521 m 0.73919,5.76753 c -1e-5,-0.40762 -0.0761,-0.7544 -0.22815,-1.04035 -0.14602,-0.28594 -0.35896,-0.52017 -0.6388,-0.70269 -0.27987,-0.18251 -0.61753,-0.31635 -1.01297,-0.40153 -0.38938,-0.0852 -0.82742,-0.12776 -1.31412,-0.12776 l -3.2488,0 0,4.63592 3.38569,0 c 0.44411,0 0.85173,-0.0365 1.22286,-0.10951 0.37719,-0.073 0.69964,-0.20077 0.96734,-0.38329 0.27376,-0.18251 0.4867,-0.42587 0.6388,-0.73007 0.15209,-0.30419 0.22814,-0.68443 0.22815,-1.14072 m 9.4361,3.94235 c -0.70573,0 -1.37496,-0.0943 -2.00768,-0.2829 -0.63273,-0.1886 -1.1894,-0.48062 -1.67003,-0.87608 -0.47454,-0.40153 -0.85174,-0.90649 -1.1316,-1.51488 -0.27986,-0.61447 -0.41979,-1.3415 -0.41979,-2.18108 l 0,-8.18586 1.74304,0 0,8.03985 c -1e-5,0.65098 0.0852,1.20461 0.25552,1.6609 0.17643,0.45021 0.41978,0.81829 0.73007,1.10423 0.31027,0.28594 0.6753,0.49583 1.0951,0.62968 0.42586,0.12776 0.89128,0.19164 1.39625,0.19164 0.49887,0 0.97037,-0.0669 1.4145,-0.20077 0.44412,-0.13384 0.83348,-0.34678 1.16811,-0.63881 0.3346,-0.29202 0.59621,-0.67226 0.78482,-1.14072 0.19467,-0.47454 0.29201,-1.04947 0.29202,-1.72479 l 0,-7.92121 1.73391,0 0,8.0216 c -10e-6,0.85783 -0.14298,1.60311 -0.42891,2.23583 -0.27987,0.62664 -0.66316,1.14681 -1.14986,1.56051 -0.48672,0.41371 -1.0586,0.72094 -1.71565,0.92171 -0.65099,0.20077 -1.34759,0.30115 -2.08982,0.30115 m 14.06291,-11.80882 c -0.73007,1e-5 -1.378,0.12169 -1.9438,0.36504 -0.55972,0.24336 -1.03122,0.59014 -1.4145,1.04034 -0.37721,0.45022 -0.66315,0.99168 -0.85783,1.6244 -0.19469,0.63273 -0.29203,1.33542 -0.29203,2.10806 0,0.77266 0.10343,1.48143 0.31028,2.12632 0.21293,0.63881 0.51409,1.1894 0.90346,1.65178 0.39545,0.46237 0.87607,0.82132 1.44188,1.07684 0.57188,0.25553 1.21373,0.38329 1.92555,0.38329 0.49887,0 0.95212,-0.0639 1.35975,-0.19164 0.41369,-0.13385 0.78481,-0.31941 1.11335,-0.55668 0.3346,-0.23727 0.63271,-0.51713 0.89433,-0.83958 0.2616,-0.32852 0.49278,-0.69051 0.69356,-1.08597 l 1.42363,0.71182 c -0.2312,0.48063 -0.51714,0.92779 -0.85783,1.34149 -0.34071,0.41371 -0.74224,0.77266 -1.20461,1.07685 -0.4563,0.3042 -0.97647,0.54451 -1.56051,0.72094 -0.57798,0.17035 -1.22591,0.25552 -1.9438,0.25552 -1.04035,0 -1.95294,-0.16426 -2.73775,-0.49279 -0.77874,-0.33461 -1.43276,-0.79699 -1.96206,-1.38713 -0.52321,-0.59622 -0.91562,-1.30195 -1.17723,-2.11719 -0.26161,-0.81523 -0.39241,-1.70652 -0.39241,-2.67387 0,-1.00383 0.13689,-1.91033 0.41066,-2.71949 0.27986,-0.80915 0.68444,-1.49663 1.21374,-2.06244 0.53538,-0.57187 1.19244,-1.00991 1.97118,-1.31412 0.77873,-0.31026 1.66698,-0.4654 2.66474,-0.46542 1.36887,2e-5 2.51264,0.26771 3.43131,0.80308 0.91866,0.53539 1.59397,1.32934 2.02594,2.38184 l -1.65178,0.54755 c -0.12169,-0.30419 -0.28595,-0.59317 -0.49279,-0.86696 -0.20687,-0.27984 -0.46543,-0.52624 -0.7757,-0.73919 -0.31029,-0.21292 -0.67532,-0.38327 -1.0951,-0.51104 -0.41371,-0.12776 -0.88825,-0.19164 -1.42363,-0.19165 m 8.00335,11.62631 0,-12.85829 1.74304,0 0,12.85829 -1.74304,0 m 17.10179,-6.48847 c -1e-5,1.00385 -0.14603,1.91643 -0.43804,2.73775 -0.28595,0.82133 -0.7027,1.52402 -1.25024,2.10807 -0.54756,0.58405 -1.21679,1.03426 -2.00768,1.35062 -0.79091,0.31636 -1.68829,0.47454 -2.69212,0.47454 -1.0586,0 -1.98639,-0.16426 -2.78338,-0.49279 -0.79699,-0.33461 -1.46013,-0.79699 -1.98943,-1.38713 -0.5293,-0.59622 -0.92779,-1.30195 -1.19548,-2.11719 -0.26769,-0.81523 -0.40154,-1.70652 -0.40154,-2.67387 0,-1.00383 0.13993,-1.91033 0.41979,-2.71949 0.27986,-0.80915 0.69052,-1.49663 1.23199,-2.06244 0.54146,-0.57187 1.20765,-1.00991 1.99855,-1.31412 0.79699,-0.31026 1.70957,-0.4654 2.73775,-0.46542 1.02209,2e-5 1.92859,0.15516 2.7195,0.46542 0.79698,0.31029 1.46316,0.75137 1.99856,1.32325 0.54145,0.57189 0.95211,1.26241 1.23198,2.07156 0.27985,0.80916 0.41978,1.70958 0.41979,2.70124 m -1.77954,0 c -1e-5,-0.77264 -0.10039,-1.47533 -0.30115,-2.10806 -0.19469,-0.63272 -0.48672,-1.17418 -0.87608,-1.6244 -0.38329,-0.4502 -0.86088,-0.79698 -1.43275,-1.04034 -0.5719,-0.24335 -1.232,-0.36503 -1.98031,-0.36504 -0.76657,1e-5 -1.43884,0.12169 -2.0168,0.36504 -0.57798,0.24336 -1.06165,0.59014 -1.45101,1.04034 -0.38329,0.45022 -0.67227,0.99168 -0.86696,1.6244 -0.1886,0.63273 -0.2829,1.33542 -0.2829,2.10806 0,0.77266 0.0973,1.48143 0.29203,2.12632 0.20077,0.63881 0.49279,1.19245 0.87608,1.6609 0.38936,0.46238 0.86999,0.82437 1.44188,1.08598 0.57796,0.25552 1.24111,0.38328 1.98943,0.38328 0.80307,0 1.49359,-0.1308 2.07156,-0.39241 0.58405,-0.26161 1.06163,-0.6236 1.43276,-1.08597 0.37719,-0.46846 0.65401,-1.02513 0.83045,-1.67003 0.1825,-0.64489 0.27376,-1.34757 0.27377,-2.10807 m -6.19643,-7.47405 0,-0.18252 1.9803,-2.06243 1.88905,0 0,0.26465 -2.82901,1.9803 -1.04034,0 m 18.73532,13.96252 -6.88087,-10.951 c 0.0122,0.29812 0.0274,0.59319 0.0456,0.88521 0.0122,0.24945 0.0213,0.5141 0.0274,0.79395 0.0122,0.27378 0.0182,0.51714 0.0182,0.73006 l 0,8.54178 -1.55139,0 0,-12.85829 2.02593,0 6.95388,11.024 c -1e-5,0 -0.0183,-0.29811 -0.0548,-0.89434 -0.0122,-0.25552 -0.0243,-0.53233 -0.0365,-0.83045 -0.0122,-0.30419 -0.0183,-0.59317 -0.0183,-0.86695 l 0,-8.43226 1.56964,0 0,12.85829 -2.09894,0 m 9.75552,-6.48847 c 0,-1.00383 0.13384,-1.91033 0.40153,-2.71949 0.27378,-0.80915 0.67835,-1.49663 1.21374,-2.06244 0.54146,-0.57187 1.21069,-1.00991 2.00768,-1.31412 0.79698,-0.31026 1.72173,-0.4654 2.77425,-0.46542 0.7909,2e-5 1.48446,0.07 2.08069,0.2099 0.59621,0.13994 1.11334,0.34071 1.55139,0.6023 0.43803,0.26162 0.80915,0.58102 1.11335,0.95821 0.30418,0.37113 0.56275,0.79092 0.7757,1.25937 l -1.6609,0.49279 c -0.1582,-0.31635 -0.34984,-0.60229 -0.57493,-0.85782 -0.21903,-0.2616 -0.48672,-0.48366 -0.80307,-0.66619 -0.31638,-0.18251 -0.68445,-0.32243 -1.10423,-0.41979 -0.41371,-0.10341 -0.88825,-0.15513 -1.42363,-0.15514 -0.77874,1e-5 -1.45709,0.12169 -2.03506,0.36504 -0.57189,0.24336 -1.04643,0.59014 -1.42363,1.04034 -0.3772,0.45022 -0.6601,0.99168 -0.8487,1.6244 -0.18252,0.63273 -0.27378,1.33542 -0.27377,2.10806 -10e-6,0.77266 0.10038,1.48143 0.30115,2.12632 0.20076,0.63881 0.49887,1.19245 0.89433,1.6609 0.39545,0.46238 0.8852,0.82437 1.46926,1.08598 0.59013,0.25552 1.27152,0.38328 2.04418,0.38328 0.50496,0 0.97038,-0.0426 1.39626,-0.12776 0.42586,-0.0852 0.80914,-0.19468 1.14985,-0.32853 0.34677,-0.13993 0.65096,-0.29203 0.91258,-0.45629 0.2616,-0.17035 0.48062,-0.3407 0.65706,-0.51105 l 0,-2.31796 -3.84197,0 0,-1.46013 5.44812,0 0,4.43515 c -0.28596,0.29203 -0.62361,0.57189 -1.01297,0.83958 -0.3833,0.26161 -0.81525,0.49279 -1.29587,0.69356 -0.48063,0.20077 -1.00689,0.35895 -1.57876,0.47454 -0.5719,0.1156 -1.18333,0.17339 -1.8343,0.17339 -1.08293,0 -2.02898,-0.16426 -2.83813,-0.49279 -0.80916,-0.33461 -1.48447,-0.79699 -2.02593,-1.38713 -0.53539,-0.59622 -0.93996,-1.30195 -1.21374,-2.11719 -0.26769,-0.81523 -0.40153,-1.70652 -0.40153,-2.67387 m 23.4625,6.48847 -6.88087,-10.951 c 0.0122,0.29812 0.0274,0.59319 0.0456,0.88521 0.0122,0.24945 0.0213,0.5141 0.0274,0.79395 0.0122,0.27378 0.0182,0.51714 0.0183,0.73006 l 0,8.54178 -1.55139,0 0,-12.85829 2.02593,0 6.95388,11.024 c -10e-6,0 -0.0183,-0.29811 -0.0548,-0.89434 -0.0122,-0.25552 -0.0243,-0.53233 -0.0365,-0.83045 -0.0122,-0.30419 -0.0183,-0.59317 -0.0182,-0.86695 l 0,-8.43226 1.56964,0 0,12.85829 -2.09894,0 m 10.30306,0.18251 c -0.70573,0 -1.37496,-0.0943 -2.00768,-0.2829 -0.63273,-0.1886 -1.1894,-0.48062 -1.67003,-0.87608 -0.47454,-0.40153 -0.85174,-0.90649 -1.1316,-1.51488 -0.27986,-0.61447 -0.41979,-1.3415 -0.41979,-2.18108 l 0,-8.18586 1.74304,0 0,8.03985 c -10e-6,0.65098 0.0852,1.20461 0.25552,1.6609 0.17643,0.45021 0.41978,0.81829 0.73006,1.10423 0.31028,0.28594 0.67531,0.49583 1.0951,0.62968 0.42587,0.12776 0.89129,0.19164 1.39626,0.19164 0.49887,0 0.97037,-0.0669 1.4145,-0.20077 0.44411,-0.13384 0.83348,-0.34678 1.16811,-0.63881 0.3346,-0.29202 0.59621,-0.67226 0.78482,-1.14072 0.19467,-0.47454 0.29201,-1.04947 0.29202,-1.72479 l 0,-7.92121 1.73391,0 0,8.0216 c -10e-6,0.85783 -0.14298,1.60311 -0.42891,2.23583 -0.27987,0.62664 -0.66316,1.14681 -1.14986,1.56051 -0.48672,0.41371 -1.0586,0.72094 -1.71565,0.92171 -0.65099,0.20077 -1.34759,0.30115 -2.08982,0.30115 m 6.83525,0 3.75071,-13.72524 1.44188,0 -3.71421,13.72524 -1.47838,0 m 6.71661,-0.18251 0,-12.85829 1.74303,0 0,11.43466 6.49759,0 0,1.42363 -8.24062,0 m 10.59508,0 0,-12.85829 1.74304,0 0,12.85829 -1.74304,0 m 13.33284,0 -6.88088,-10.951 c 0.0122,0.29812 0.0274,0.59319 0.0456,0.88521 0.0122,0.24945 0.0213,0.5141 0.0274,0.79395 0.0122,0.27378 0.0183,0.51714 0.0183,0.73006 l 0,8.54178 -1.55139,0 0,-12.85829 2.02594,0 6.95388,11.024 c -10e-6,0 -0.0183,-0.29811 -0.0548,-0.89434 -0.0122,-0.25552 -0.0243,-0.53233 -0.0365,-0.83045 -0.0122,-0.30419 -0.0183,-0.59317 -0.0183,-0.86695 l 0,-8.43226 1.56964,0 0,12.85829 -2.09894,0 m 10.30304,0.18251 c -0.70573,0 -1.37496,-0.0943 -2.00768,-0.2829 -0.63273,-0.1886 -1.1894,-0.48062 -1.67003,-0.87608 -0.47454,-0.40153 -0.85174,-0.90649 -1.1316,-1.51488 -0.27986,-0.61447 -0.41979,-1.3415 -0.41979,-2.18108 l 0,-8.18586 1.74304,0 0,8.03985 c -10e-6,0.65098 0.0852,1.20461 0.25552,1.6609 0.17643,0.45021 0.41978,0.81829 0.73007,1.10423 0.31027,0.28594 0.6753,0.49583 1.0951,0.62968 0.42586,0.12776 0.89128,0.19164 1.39625,0.19164 0.49887,0 0.97037,-0.0669 1.4145,-0.20077 0.44412,-0.13384 0.83348,-0.34678 1.16811,-0.63881 0.3346,-0.29202 0.59621,-0.67226 0.78482,-1.14072 0.19467,-0.47454 0.29201,-1.04947 0.29202,-1.72479 l 0,-7.92121 1.73391,0 0,8.0216 c -10e-6,0.85783 -0.14298,1.60311 -0.42891,2.23583 -0.27987,0.62664 -0.66316,1.14681 -1.14986,1.56051 -0.48672,0.41371 -1.0586,0.72094 -1.71565,0.92171 -0.65099,0.20077 -1.34759,0.30115 -2.08982,0.30115 m 16.98317,-0.18251 -3.86023,-5.62151 -3.94235,5.62151 -1.92555,0 4.89144,-6.68011 -4.51728,-6.17818 1.92555,0 3.57732,5.04658 3.47694,-5.04658 1.92555,0 -4.39865,6.1143 4.77281,6.74399 -1.92555,0"
         style="font-size:18.68969536px;font-style:normal;font-variant:normal;font-weight:normal;font-stretch:normal;text-align:start;line-height:125%;writing-mode:lr-tb;text-anchor:start;fill:#452f27;fill-opacity:1;stroke:none;font-family:Liberation Sans;-inkscape-font-specification:Liberation Sans" />
    </g>
  </g>
</svg>
