<?xml version="1.0" encoding="UTF-8" standalone="no"?>
<!-- Created with Inkscape (http://www.inkscape.org/) -->

<svg
   xmlns:dc="http://purl.org/dc/elements/1.1/"
   xmlns:cc="http://creativecommons.org/ns#"
   xmlns:rdf="http://www.w3.org/1999/02/22-rdf-syntax-ns#"
   xmlns:svg="http://www.w3.org/2000/svg"
   xmlns="http://www.w3.org/2000/svg"
   xmlns:xlink="http://www.w3.org/1999/xlink"
   xmlns:sodipodi="http://sodipodi.sourceforge.net/DTD/sodipodi-0.dtd"
   xmlns:inkscape="http://www.inkscape.org/namespaces/inkscape"
   version="1.0"
   width="30"
   height="30"
   id="svg2408"
   style="display:inline"
   inkscape:version="0.47 r22583"
   sodipodi:docname="nuevo.svg">
  <sodipodi:namedview
     pagecolor="#ffffff"
     bordercolor="#666666"
     borderopacity="1"
     objecttolerance="10"
     gridtolerance="10"
     guidetolerance="10"
     inkscape:pageopacity="0"
     inkscape:pageshadow="2"
     inkscape:window-width="1440"
     inkscape:window-height="846"
     id="namedview2992"
     showgrid="false"
     inkscape:zoom="10.416667"
     inkscape:cx="-21.056624"
     inkscape:cy="9.6165298"
     inkscape:window-x="0"
     inkscape:window-y="25"
     inkscape:window-maximized="1"
     inkscape:current-layer="svg2408" />
  <defs
     id="defs2410">
    <inkscape:perspective
       sodipodi:type="inkscape:persp3d"
       inkscape:vp_x="0 : 48 : 1"
       inkscape:vp_y="0 : 1000 : 0"
       inkscape:vp_z="96 : 48 : 1"
       inkscape:persp3d-origin="48 : 32 : 1"
       id="perspective2994" />
    <linearGradient
       id="linearGradient3637">
      <stop
         id="stop3639"
         style="stop-color:#f0f0f0;stop-opacity:1"
         offset="0" />
      <stop
         id="stop3641"
         style="stop-color:#dcdcdc;stop-opacity:1"
         offset="1" />
    </linearGradient>
    <linearGradient
       x1="45.447727"
       y1="92.539597"
       x2="45.447727"
       y2="7.0165396"
       id="ButtonShadow"
       gradientUnits="userSpaceOnUse"
       gradientTransform="scale(1.0058652,0.994169)">
      <stop
         id="stop3750"
         style="stop-color:#000000;stop-opacity:1"
         offset="0" />
      <stop
         id="stop3752"
         style="stop-color:#000000;stop-opacity:0.58823532"
         offset="1" />
    </linearGradient>
    <linearGradient
       id="linearGradient3737">
      <stop
         id="stop3739"
         style="stop-color:#ffffff;stop-opacity:1"
         offset="0" />
      <stop
         id="stop3741"
         style="stop-color:#ffffff;stop-opacity:0"
         offset="1" />
    </linearGradient>
    <linearGradient
       id="linearGradient3700">
      <stop
         id="stop3702"
         style="stop-color:#2276c5;stop-opacity:1"
         offset="0" />
      <stop
         id="stop3704"
         style="stop-color:#68baf4;stop-opacity:1"
         offset="1" />
    </linearGradient>
    <filter
       color-interpolation-filters="sRGB"
       id="filter3174">
      <feGaussianBlur
         id="feGaussianBlur3176"
         stdDeviation="1.71" />
    </filter>
    <linearGradient
       x1="36.357143"
       y1="6"
       x2="36.357143"
       y2="63.893143"
       id="linearGradient3188"
       xlink:href="#linearGradient3737"
       gradientUnits="userSpaceOnUse" />
    <radialGradient
       cx="48"
       cy="90.171875"
       r="42"
       fx="48"
       fy="90.171875"
       id="radialGradient3619"
       xlink:href="#linearGradient3737"
       gradientUnits="userSpaceOnUse"
       gradientTransform="matrix(1.1573129,0,0,0.99590774,-7.5510206,0.19713193)" />
    <linearGradient
       x1="48"
       y1="90"
       x2="48"
       y2="5.9877172"
       id="linearGradient2843"
       xlink:href="#linearGradient3700"
       gradientUnits="userSpaceOnUse"
       gradientTransform="translate(0,100)" />
    <clipPath
       id="clipPath3625">
      <path
         d="M 0,0 0,96 96,96 96,0 0,0 z m 12,6 72,0 c 3.324,0 6,2.676 6,6 l 0,72 c 0,3.324 -2.676,6 -6,6 L 12,90 C 8.676,90 6,87.324 6,84 L 6,12 C 6,8.676 8.676,6 12,6 z"
         inkscape:connector-curvature="0"
         id="path3627"
         style="fill:#ffffff;fill-opacity:1;stroke:none" />
    </clipPath>
    <linearGradient
       x1="44.512066"
       y1="6"
       x2="44.512066"
       y2="90.015434"
       id="linearGradient3643"
       xlink:href="#linearGradient3637"
       gradientUnits="userSpaceOnUse" />
    <clipPath
       id="clipPath3649">
      <rect
         width="76"
         height="76"
         rx="4"
         ry="4"
         x="10"
         y="10"
         id="rect3651"
         style="fill:#ffffff;fill-opacity:1;fill-rule:nonzero;stroke:none" />
    </clipPath>
    <filter
       color-interpolation-filters="sRGB"
       id="filter3657">
      <feGaussianBlur
         id="feGaussianBlur3659"
         stdDeviation="1.14" />
    </filter>
    <linearGradient
       id="linearGradient4081">
      <stop
         id="stop4083"
         style="stop-color:#aaaaaa;stop-opacity:1"
         offset="0" />
      <stop
         id="stop4085"
         style="stop-color:#f0f0f0;stop-opacity:1"
         offset="1" />
    </linearGradient>
    <linearGradient
       x1="29.826593"
       y1="51.954468"
       x2="65.693901"
       y2="51.954468"
       id="linearGradient3034"
       xlink:href="#linearGradient4081"
       gradientUnits="userSpaceOnUse"
       gradientTransform="matrix(0,-1,-1,0,96,16)" />
    <linearGradient
       x1="29.826593"
       y1="51.954468"
       x2="65.693901"
       y2="51.954468"
       id="linearGradient3705"
       xlink:href="#linearGradient4081"
       gradientUnits="userSpaceOnUse"
       gradientTransform="matrix(0,-1,-1,0,36,16)" />
    <linearGradient
       x1="56"
       y1="72"
       x2="56"
       y2="24"
       id="linearGradient3728"
       xlink:href="#linearGradient4081"
       gradientUnits="userSpaceOnUse" />
    <linearGradient
       inkscape:collect="always"
       xlink:href="#linearGradient3700"
       id="linearGradient3102"
       gradientUnits="userSpaceOnUse"
       gradientTransform="translate(0,100)"
       x1="48"
       y1="90"
       x2="48"
       y2="5.9877172" />
    <radialGradient
       inkscape:collect="always"
       xlink:href="#linearGradient3737"
       id="radialGradient3105"
       gradientUnits="userSpaceOnUse"
       gradientTransform="matrix(1.1573129,0,0,0.99590774,-7.5510206,0.19713193)"
       cx="48"
       cy="90.171875"
       fx="48"
       fy="90.171875"
       r="42" />
    <linearGradient
       inkscape:collect="always"
       xlink:href="#linearGradient3737"
       id="linearGradient3108"
       gradientUnits="userSpaceOnUse"
       x1="36.357143"
       y1="6"
       x2="36.357143"
       y2="63.893143" />
    <linearGradient
       inkscape:collect="always"
       xlink:href="#linearGradient3637"
       id="linearGradient3111"
       gradientUnits="userSpaceOnUse"
       x1="44.512066"
       y1="6"
       x2="44.512066"
       y2="90.015434" />
    <linearGradient
       inkscape:collect="always"
       xlink:href="#linearGradient4081"
       id="linearGradient3120"
       gradientUnits="userSpaceOnUse"
       gradientTransform="matrix(0,-1,-1,0,36,16)"
       x1="29.826593"
       y1="51.954468"
       x2="65.693901"
       y2="51.954468" />
    <linearGradient
       inkscape:collect="always"
       xlink:href="#linearGradient4081"
       id="linearGradient3124"
       gradientUnits="userSpaceOnUse"
       gradientTransform="matrix(0,-1,-1,0,96,16)"
       x1="29.826593"
       y1="51.954468"
       x2="65.693901"
       y2="51.954468" />
    <linearGradient
       inkscape:collect="always"
       xlink:href="#linearGradient4081"
       id="linearGradient3133"
       gradientUnits="userSpaceOnUse"
       x1="56"
       y1="72"
       x2="56"
       y2="24" />
    <linearGradient
       inkscape:collect="always"
       xlink:href="#ButtonShadow"
       id="linearGradient3155"
       gradientUnits="userSpaceOnUse"
       gradientTransform="scale(1.0058652,0.994169)"
       x1="45.447727"
       y1="92.539597"
       x2="45.447727"
       y2="7.0165396" />
    <linearGradient
       inkscape:collect="always"
       xlink:href="#linearGradient3637"
       id="linearGradient3157"
       gradientUnits="userSpaceOnUse"
       x1="44.512066"
       y1="6"
       x2="44.512066"
       y2="90.015434" />
    <linearGradient
       inkscape:collect="always"
       xlink:href="#linearGradient3737"
       id="linearGradient3159"
       gradientUnits="userSpaceOnUse"
       x1="36.357143"
       y1="6"
       x2="36.357143"
       y2="63.893143" />
    <radialGradient
       inkscape:collect="always"
       xlink:href="#linearGradient3737"
       id="radialGradient3161"
       gradientUnits="userSpaceOnUse"
       gradientTransform="matrix(1.1573129,0,0,0.99590774,-7.5510206,0.19713193)"
       cx="48"
       cy="90.171875"
       fx="48"
       fy="90.171875"
       r="42" />
    <linearGradient
       inkscape:collect="always"
       xlink:href="#linearGradient4081"
       id="linearGradient3163"
       gradientUnits="userSpaceOnUse"
       x1="56"
       y1="72"
       x2="56"
       y2="24" />
  </defs>
  <metadata
     id="metadata2413">
    <rdf:RDF>
      <cc:Work
         rdf:about="">
        <dc:format>image/svg+xml</dc:format>
        <dc:type
           rdf:resource="http://purl.org/dc/dcmitype/StillImage" />
      </cc:Work>
    </rdf:RDF>
  </metadata>
  <g
     id="g3138"
     transform="matrix(0.31844429,0,0,0.32222031,-0.28532592,-0.93314987)">
    <g
       style="display:inline"
       id="layer2">
      <rect
         style="opacity:0.9;fill:url(#linearGradient3155);fill-opacity:1;fill-rule:nonzero;stroke:none;filter:url(#filter3174)"
         id="rect3745"
         clip-path="url(#clipPath3625)"
         y="7"
         x="5"
         ry="6"
         rx="6"
         height="85"
         width="86" />
    </g>
    <rect
       width="84"
       height="84"
       rx="6"
       ry="6"
       x="6"
       y="6"
       id="rect2419"
       style="opacity:0.7;fill:#000000;fill-opacity:1;fill-rule:nonzero;stroke:none" />
    <path
       d="m 14,10 c -2.216,0 -4,1.784 -4,4 l 0,68 c 0,2.216 1.784,4 4,4 l 68,0 c 2.216,0 4,-1.784 4,-4 l 0,-68 c 0,-2.216 -1.784,-4 -4,-4 l -68,0 z m 0,3.0625 68,0 c 0.578769,0 0.9375,0.358731 0.9375,0.9375 l 0,68 c 0,0.578769 -0.358731,0.9375 -0.9375,0.9375 l -68,0 c -0.578769,0 -0.9375,-0.358731 -0.9375,-0.9375 l 0,-68 c 0,-0.578769 0.358731,-0.9375 0.9375,-0.9375 z"
       inkscape:connector-curvature="0"
       id="rect3726"
       style="opacity:0.07999998;fill:#000000;fill-opacity:1;fill-rule:nonzero;stroke:none" />
    <path
       d="M 12,6 C 8.676,6 6,8.676 6,12 l 0,72 c 0,3.324 2.676,6 6,6 l 72,0 c 3.324,0 6,-2.676 6,-6 L 90,12 C 90,8.676 87.324,6 84,6 L 12,6 z m 2,4 68,0 c 2.216,0 4,1.784 4,4 l 0,68 c 0,2.216 -1.784,4 -4,4 l -68,0 c -2.216,0 -4,-1.784 -4,-4 l 0,-68 c 0,-2.216 1.784,-4 4,-4 z"
       inkscape:connector-curvature="0"
       id="rect3629"
       style="fill:url(#linearGradient3157);fill-opacity:1;fill-rule:nonzero;stroke:none" />
    <path
       d="M 12,6 C 8.676,6 6,8.676 6,12 l 0,2 0,68 0,2 c 0,0.334721 0.04135,0.6507 0.09375,0.96875 0.0487,0.295596 0.09704,0.596915 0.1875,0.875 0.00988,0.03038 0.020892,0.0636 0.03125,0.09375 0.098865,0.287771 0.2348802,0.547452 0.375,0.8125 0.1445918,0.273507 0.3156161,0.535615 0.5,0.78125 0.1843839,0.245635 0.3737765,0.473472 0.59375,0.6875 0.439947,0.428056 0.94291,0.814526 1.5,1.09375 0.278545,0.139612 0.5734731,0.246947 0.875,0.34375 -0.2562018,-0.100222 -0.4867109,-0.236272 -0.71875,-0.375 -0.00741,-0.0044 -0.023866,0.0045 -0.03125,0 -0.031933,-0.0193 -0.062293,-0.04251 -0.09375,-0.0625 -0.120395,-0.0767 -0.2310226,-0.163513 -0.34375,-0.25 -0.1061728,-0.0808 -0.2132809,-0.161112 -0.3125,-0.25 C 8.4783201,88.557317 8.3087904,88.373362 8.15625,88.1875 8.0486711,88.057245 7.9378561,87.922215 7.84375,87.78125 7.818661,87.74287 7.805304,87.69538 7.78125,87.65625 7.716487,87.553218 7.6510225,87.451733 7.59375,87.34375 7.4927417,87.149044 7.3880752,86.928049 7.3125,86.71875 7.30454,86.69694 7.288911,86.6782 7.28125,86.65625 7.2494249,86.5643 7.2454455,86.469419 7.21875,86.375 7.1884177,86.268382 7.1483606,86.171969 7.125,86.0625 7.0521214,85.720988 7,85.364295 7,85 L 7,83 7,15 7,13 C 7,10.218152 9.2181517,8 12,8 l 2,0 68,0 2,0 c 2.781848,0 5,2.218152 5,5 l 0,2 0,68 0,2 c 0,0.364295 -0.05212,0.720988 -0.125,1.0625 -0.04415,0.206893 -0.08838,0.397658 -0.15625,0.59375 -0.0077,0.02195 -0.0233,0.04069 -0.03125,0.0625 -0.06274,0.173739 -0.138383,0.367449 -0.21875,0.53125 -0.04158,0.0828 -0.07904,0.169954 -0.125,0.25 -0.0546,0.09721 -0.126774,0.18835 -0.1875,0.28125 -0.09411,0.140965 -0.204921,0.275995 -0.3125,0.40625 -0.143174,0.17445 -0.303141,0.346998 -0.46875,0.5 -0.01117,0.0102 -0.01998,0.02115 -0.03125,0.03125 -0.138386,0.125556 -0.285091,0.234436 -0.4375,0.34375 -0.102571,0.07315 -0.204318,0.153364 -0.3125,0.21875 -0.0074,0.0045 -0.02384,-0.0044 -0.03125,0 -0.232039,0.138728 -0.462548,0.274778 -0.71875,0.375 0.301527,-0.0968 0.596455,-0.204138 0.875,-0.34375 0.55709,-0.279224 1.060053,-0.665694 1.5,-1.09375 0.219973,-0.214028 0.409366,-0.441865 0.59375,-0.6875 0.184384,-0.245635 0.355408,-0.507743 0.5,-0.78125 0.14012,-0.265048 0.276135,-0.524729 0.375,-0.8125 0.01041,-0.03078 0.02133,-0.06274 0.03125,-0.09375 0.09046,-0.278085 0.1388,-0.579404 0.1875,-0.875 C 89.95865,84.6507 90,84.334721 90,84 l 0,-2 0,-68 0,-2 C 90,8.676 87.324,6 84,6 L 12,6 z"
       inkscape:connector-curvature="0"
       id="rect3728"
       style="fill:url(#linearGradient3159);fill-opacity:1;fill-rule:nonzero;stroke:none" />
    <path
       d="M 12,90 C 8.676,90 6,87.324 6,84 L 6,82 6,14 6,12 c 0,-0.334721 0.04135,-0.6507 0.09375,-0.96875 0.0487,-0.295596 0.09704,-0.596915 0.1875,-0.875 C 6.29113,10.12587 6.302142,10.09265 6.3125,10.0625 6.411365,9.774729 6.5473802,9.515048 6.6875,9.25 6.8320918,8.976493 7.0031161,8.714385 7.1875,8.46875 7.3718839,8.223115 7.5612765,7.995278 7.78125,7.78125 8.221197,7.353194 8.72416,6.966724 9.28125,6.6875 9.559795,6.547888 9.8547231,6.440553 10.15625,6.34375 9.9000482,6.443972 9.6695391,6.580022 9.4375,6.71875 c -0.00741,0.0044 -0.023866,-0.0045 -0.03125,0 -0.031933,0.0193 -0.062293,0.04251 -0.09375,0.0625 -0.120395,0.0767 -0.2310226,0.163513 -0.34375,0.25 -0.1061728,0.0808 -0.2132809,0.161112 -0.3125,0.25 C 8.4783201,7.442683 8.3087904,7.626638 8.15625,7.8125 8.0486711,7.942755 7.9378561,8.077785 7.84375,8.21875 7.818661,8.25713 7.805304,8.30462 7.78125,8.34375 7.716487,8.446782 7.6510225,8.548267 7.59375,8.65625 7.4927417,8.850956 7.3880752,9.071951 7.3125,9.28125 7.30454,9.30306 7.288911,9.3218 7.28125,9.34375 7.2494249,9.4357 7.2454455,9.530581 7.21875,9.625 7.1884177,9.731618 7.1483606,9.828031 7.125,9.9375 7.0521214,10.279012 7,10.635705 7,11 l 0,2 0,68 0,2 c 0,2.781848 2.2181517,5 5,5 l 2,0 68,0 2,0 c 2.781848,0 5,-2.218152 5,-5 l 0,-2 0,-68 0,-2 C 89,10.635705 88.94788,10.279012 88.875,9.9375 88.83085,9.730607 88.78662,9.539842 88.71875,9.34375 88.71105,9.3218 88.69545,9.30306 88.6875,9.28125 88.62476,9.107511 88.549117,8.913801 88.46875,8.75 88.42717,8.6672 88.38971,8.580046 88.34375,8.5 88.28915,8.40279 88.216976,8.31165 88.15625,8.21875 88.06214,8.077785 87.951329,7.942755 87.84375,7.8125 87.700576,7.63805 87.540609,7.465502 87.375,7.3125 87.36383,7.3023 87.35502,7.29135 87.34375,7.28125 87.205364,7.155694 87.058659,7.046814 86.90625,6.9375 86.803679,6.86435 86.701932,6.784136 86.59375,6.71875 c -0.0074,-0.0045 -0.02384,0.0044 -0.03125,0 -0.232039,-0.138728 -0.462548,-0.274778 -0.71875,-0.375 0.301527,0.0968 0.596455,0.204138 0.875,0.34375 0.55709,0.279224 1.060053,0.665694 1.5,1.09375 0.219973,0.214028 0.409366,0.441865 0.59375,0.6875 0.184384,0.245635 0.355408,0.507743 0.5,0.78125 0.14012,0.265048 0.276135,0.524729 0.375,0.8125 0.01041,0.03078 0.02133,0.06274 0.03125,0.09375 0.09046,0.278085 0.1388,0.579404 0.1875,0.875 C 89.95865,11.3493 90,11.665279 90,12 l 0,2 0,68 0,2 c 0,3.324 -2.676,6 -6,6 l -72,0 z"
       inkscape:connector-curvature="0"
       id="path3615"
       style="opacity:0.6;fill:url(#radialGradient3161);fill-opacity:1;fill-rule:nonzero;stroke:none" />
    <path
       d="m 14.089286,10 c -2.216,0 -4,1.784 -4,4 l 0,68 c 0,2.216 1.784,4 4,4 l 68,0 c 2.216,0 4,-1.784 4,-4 l 0,-68 c 0,-2.216 -1.784,-4 -4,-4 l -68,0 z m 0,2 68,0 c 1.140301,0 2,0.859699 2,2 l 0,68 c 0,1.140301 -0.859699,2 -2,2 l -68,0 c -1.140301,0 -2,-0.859699 -2,-2 l 0,-68 c 0,-1.140301 0.859699,-2 2,-2 z"
       inkscape:connector-curvature="0"
       id="path3709"
       style="opacity:0.16000001;fill:#000000;fill-opacity:1;fill-rule:nonzero;stroke:none" />
    <path
       d="m 14,10 c -2.216,0 -4,1.784 -4,4 l 0,68 c 0,2.216 1.784,4 4,4 l 68,0 c 2.216,0 4,-1.784 4,-4 l 0,-68 c 0,-2.216 -1.784,-4 -4,-4 l -68,0 z m 0,1 68,0 c 1.673848,0 3,1.326152 3,3 l 0,68 c 0,1.673848 -1.326152,3 -3,3 l -68,0 c -1.673848,0 -3,-1.326152 -3,-3 l 0,-68 c 0,-1.673848 1.326152,-3 3,-3 z"
       inkscape:connector-curvature="0"
       id="path3707"
       style="opacity:0.36000001;fill:#000000;fill-opacity:1;fill-rule:nonzero;stroke:none" />
    <path
       d="M 48,22.90625 C 33.610479,22.90625 21.90625,34.610479 21.90625,49 21.90625,63.389521 33.610479,75.09375 48,75.09375 62.389521,75.09375 74.09375,63.389521 74.09375,49 74.09375,34.610479 62.389521,22.90625 48,22.90625 z"
       id="path3730"
       style="opacity:0.1;fill:#000000;fill-opacity:1;stroke:none" />
    <path
       d="M 48,23.90625 C 34.159274,23.90625 22.90625,35.159274 22.90625,49 22.90625,62.840726 34.159274,74.09375 48,74.09375 61.840726,74.09375 73.09375,62.840726 73.09375,49 73.09375,35.159274 61.840726,23.90625 48,23.90625 z m -0.90625,10.1875 1.8125,0 0,7.96875 C 48.601001,42.021832 48.315851,41.90625 48,41.90625 c -0.315851,0 -0.601001,0.115582 -0.90625,0.15625 l 0,-7.96875 z m -9,3.75 5.625,5.625 c -0.473504,0.366245 -0.883755,0.776496 -1.25,1.25 l -5.625,-5.625 1.25,-1.25 z m 19.8125,0 1.25,1.25 -5.625,5.625 c -0.366245,-0.473504 -0.776496,-0.883755 -1.25,-1.25 l 5.625,-5.625 z m -24.8125,10.25 7.96875,0 C 41.02183,48.398999 40.90625,48.684149 40.90625,49 c 0,0.315851 0.115582,0.601001 0.15625,0.90625 l -7.96875,0 0,-1.8125 z m 21.84375,0 7.96875,0 0,1.8125 -7.96875,0 C 54.97817,49.601001 55.09375,49.315851 55.09375,49 c 0,-0.315851 -0.115582,-0.601001 -0.15625,-0.90625 z m -12.46875,5.1875 c 0.366245,0.473504 0.776496,0.883755 1.25,1.25 l -5.625,5.625 -1.25,-1.25 5.625,-5.625 z m 11.0625,0 5.625,5.625 -1.25,1.25 -5.625,-5.625 c 0.473504,-0.366245 0.883755,-0.776496 1.25,-1.25 z m -6.4375,2.65625 c 0.305249,0.04067 0.590399,0.15625 0.90625,0.15625 0.315851,0 0.601001,-0.115582 0.90625,-0.15625 l 0,7.96875 -1.8125,0 0,-7.96875 z"
       id="path3726"
       style="opacity:0.15;fill:#000000;fill-opacity:1;stroke:none" />
    <path
       d="M 48,25 C 34.745166,25 24,35.745166 24,49 24,62.254834 34.745166,73 48,73 61.254834,73 72,62.254834 72,49 72,35.745166 61.254834,25 48,25 z m -2,8 4,0 0,10.34375 C 49.374865,43.122984 48.700711,43 48,43 c -0.700711,0 -1.374865,0.122984 -2,0.34375 L 46,33 z m -7.90625,3.28125 7.3125,7.3125 c -1.234112,0.59109 -2.22141,1.578388 -2.8125,2.8125 l -7.3125,-7.3125 2.8125,-2.8125 z m 19.8125,0 2.8125,2.8125 -7.3125,7.3125 c -0.59109,-1.234112 -1.578388,-2.22141 -2.8125,-2.8125 l 7.3125,-7.3125 z M 32,47 42.34375,47 C 42.122984,47.625135 42,48.299289 42,49 c 0,0.700711 0.122984,1.374865 0.34375,2 L 32,51 32,47 z M 53.65625,47 64,47 64,51 53.65625,51 C 53.877016,50.374865 54,49.700711 54,49 54,48.299289 53.877016,47.625135 53.65625,47 z m -11.0625,4.59375 c 0.59109,1.234112 1.578388,2.22141 2.8125,2.8125 l -7.3125,7.3125 -2.8125,-2.8125 7.3125,-7.3125 z m 10.8125,0 7.3125,7.3125 -2.8125,2.8125 -7.3125,-7.3125 c 1.234112,-0.59109 2.22141,-1.578388 2.8125,-2.8125 z M 46,54.65625 C 46.625135,54.877016 47.299289,55 48,55 c 0.700711,0 1.374865,-0.122984 2,-0.34375 L 50,65 46,65 46,54.65625 z"
       inkscape:connector-curvature="0"
       id="path3720"
       style="opacity:0.3;fill:#000000;fill-opacity:1;stroke:none" />
    <path
       d="M 48,24 C 34.745166,24 24,34.745166 24,48 24,61.254834 34.745166,72 48,72 61.254834,72 72,61.254834 72,48 72,34.745166 61.254834,24 48,24 z m -2,8 4,0 0,10.34375 C 49.374865,42.122984 48.700711,42 48,42 c -0.700711,0 -1.374865,0.122984 -2,0.34375 L 46,32 z m -7.90625,3.28125 7.3125,7.3125 c -1.234112,0.59109 -2.22141,1.578388 -2.8125,2.8125 l -7.3125,-7.3125 2.8125,-2.8125 z m 19.8125,0 2.8125,2.8125 -7.3125,7.3125 c -0.59109,-1.234112 -1.578388,-2.22141 -2.8125,-2.8125 l 7.3125,-7.3125 z M 32,46 42.34375,46 C 42.122984,46.625135 42,47.299289 42,48 c 0,0.700711 0.122984,1.374865 0.34375,2 L 32,50 32,46 z M 53.65625,46 64,46 64,50 53.65625,50 C 53.877016,49.374865 54,48.700711 54,48 54,47.299289 53.877016,46.625135 53.65625,46 z m -11.0625,4.59375 c 0.59109,1.234112 1.578388,2.22141 2.8125,2.8125 l -7.3125,7.3125 -2.8125,-2.8125 7.3125,-7.3125 z m 10.8125,0 7.3125,7.3125 -2.8125,2.8125 -7.3125,-7.3125 c 1.234112,-0.59109 2.22141,-1.578388 2.8125,-2.8125 z M 46,53.65625 C 46.625135,53.877016 47.299289,54 48,54 c 0.700711,0 1.374865,-0.122984 2,-0.34375 L 50,64 46,64 46,53.65625 z"
       inkscape:connector-curvature="0"
       id="path2928"
       style="fill:url(#linearGradient3163);fill-opacity:1;stroke:none" />
    <path
       d="m 48,24 c -13.254834,0 -24,10.745166 -24,24 0,0.165582 -0.0033,0.335217 0,0.5 C 24.263839,35.473936 34.910748,25 48,25 61.089252,25 71.736161,35.473936 72,48.5 72.003338,48.335217 72,48.165582 72,48 72,34.745166 61.254834,24 48,24 z m -12.21875,14.59375 -0.5,0.5 L 42.1875,46 l 0.15625,0 c -0.01422,0.04025 -0.01785,0.08435 -0.03125,0.125 l 0.28125,0.28125 c 0.59109,-1.234112 1.578388,-2.22141 2.8125,-2.8125 l -0.625,-0.625 c -0.933921,0.59759 -1.703261,1.426477 -2.1875,2.4375 l -6.8125,-6.8125 z m 24.4375,0 -6.8125,6.8125 c -0.484239,-1.011023 -1.253579,-1.83991 -2.1875,-2.4375 l -0.625,0.625 c 1.234112,0.59109 2.22141,1.578388 2.8125,2.8125 L 53.6875,46.125 C 53.6741,46.08435 53.67047,46.04025 53.65625,46 l 0.15625,0 6.90625,-6.90625 -0.5,-0.5 z M 48,42 c -0.700711,0 -1.374865,0.122984 -2,0.34375 l 0,1 C 46.625135,43.122984 47.299289,43 48,43 c 0.700711,0 1.374865,0.122984 2,0.34375 l 0,-1 C 49.374865,42.122984 48.700711,42 48,42 z m -5.90625,5 C 42.038773,47.324771 42,47.660174 42,48 c 0,0.169434 0.01723,0.333989 0.03125,0.5 0.04398,-0.520543 0.145116,-1.026025 0.3125,-1.5 l -0.25,0 z m 11.5625,0 c 0.167384,0.473975 0.268523,0.979457 0.3125,1.5 C 53.982775,48.333989 54,48.169434 54,48 54,47.660174 53.96123,47.324771 53.90625,47 l -0.25,0 z M 32,50 l 0,1 10.1875,0 0.125,-0.125 C 42.218736,50.590488 42.144834,50.301778 42.09375,50 L 32,50 z m 21.90625,0 c -0.05108,0.301778 -0.124986,0.590488 -0.21875,0.875 L 53.8125,51 64,51 64,50 53.90625,50 z m -9.125,4.03125 -6.6875,6.6875 -2.3125,-2.3125 -0.5,0.5 2.8125,2.8125 7.3125,-7.3125 c -0.223089,-0.106851 -0.418924,-0.243137 -0.625,-0.375 z m 6.4375,0 c -0.206076,0.131863 -0.401911,0.268149 -0.625,0.375 l 7.3125,7.3125 2.8125,-2.8125 -0.5,-0.5 -2.3125,2.3125 -6.6875,-6.6875 z M 46,64 l 0,1 4,0 0,-1 -4,0 z"
       inkscape:connector-curvature="0"
       id="path2930"
       style="opacity:0.75;fill:#ffffff;fill-opacity:1;stroke:none" />
    <path
       d="m 46,31 0,1 4,0 0,-1 -4,0 z m -7.90625,3.28125 -2.8125,2.8125 0.5,0.5 2.3125,-2.3125 6.6875,6.6875 c 0.206076,-0.131863 0.401911,-0.268149 0.625,-0.375 l -7.3125,-7.3125 z m 19.8125,0 -7.3125,7.3125 c 0.223089,0.106851 0.418924,0.243137 0.625,0.375 l 6.6875,-6.6875 2.3125,2.3125 0.5,-0.5 -2.8125,-2.8125 z M 32,45 l 0,1 10.09375,0 c 0.05108,-0.301778 0.124986,-0.590488 0.21875,-0.875 L 42.1875,45 32,45 z m 21.8125,0 -0.125,0.125 c 0.09376,0.284512 0.167666,0.573222 0.21875,0.875 L 64,46 64,45 53.8125,45 z M 24,47.5 c -0.0033,0.164783 0,0.334418 0,0.5 0,13.254834 10.745166,24 24,24 13.254834,0 24,-10.745166 24,-24 0,-0.165582 0.0033,-0.335217 0,-0.5 C 71.736161,60.526064 61.089252,71 48,71 34.910748,71 24.263839,60.526064 24,47.5 z m 18.03125,0 C 42.017225,47.666011 42,47.830566 42,48 c 0,0.339826 0.03877,0.675229 0.09375,1 l 0.25,0 c -0.167384,-0.473975 -0.268523,-0.979457 -0.3125,-1.5 z m 11.9375,0 c -0.04398,0.520543 -0.145116,1.026025 -0.3125,1.5 l 0.25,0 C 53.961227,48.675229 54,48.339826 54,48 54,47.830566 53.98277,47.666011 53.96875,47.5 z m -11.375,2.09375 -0.28125,0.28125 c 0.0134,0.04065 0.01703,0.08475 0.03125,0.125 l -0.15625,0 -6.90625,6.90625 0.5,0.5 6.8125,-6.8125 c 0.484239,1.011023 1.253579,1.83991 2.1875,2.4375 l 0.625,-0.625 c -1.234112,-0.59109 -2.22141,-1.578388 -2.8125,-2.8125 z m 10.8125,0 c -0.59109,1.234112 -1.578388,2.22141 -2.8125,2.8125 l 0.625,0.625 c 0.933921,-0.59759 1.703261,-1.426477 2.1875,-2.4375 l 6.8125,6.8125 0.5,-0.5 L 53.8125,50 53.65625,50 c 0.01422,-0.04025 0.01785,-0.08435 0.03125,-0.125 L 53.40625,49.59375 z M 46,52.65625 l 0,1 C 46.625135,53.877016 47.299289,54 48,54 c 0.700711,0 1.374865,-0.122984 2,-0.34375 l 0,-1 C 49.374865,52.877016 48.700711,53 48,53 47.299289,53 46.625135,52.877016 46,52.65625 z"
       inkscape:connector-curvature="0"
       id="path3711"
       style="opacity:0.15;fill:#000000;fill-opacity:1;stroke:none" />
  </g>
</svg>
