<?xml version="1.0" encoding="UTF-8" standalone="no"?>
<!-- Generator: Adobe Illustrator 19.0.0, SVG Export Plug-In . SVG Version: 6.00 Build 0)  -->

<svg
   xmlns:dc="http://purl.org/dc/elements/1.1/"
   xmlns:cc="http://creativecommons.org/ns#"
   xmlns:rdf="http://www.w3.org/1999/02/22-rdf-syntax-ns#"
   xmlns:svg="http://www.w3.org/2000/svg"
   xmlns="http://www.w3.org/2000/svg"
   xmlns:xlink="http://www.w3.org/1999/xlink"
   xmlns:sodipodi="http://sodipodi.sourceforge.net/DTD/sodipodi-0.dtd"
   xmlns:inkscape="http://www.inkscape.org/namespaces/inkscape"
   version="1.1"
   id="Layer_1"
   x="0px"
   y="0px"
   viewBox="0 0 944 319.99998"
   xml:space="preserve"
   sodipodi:docname="banner.svg"
   width="944"
   height="320"
   inkscape:version="0.92.1 r15371"><metadata
     id="metadata762"><rdf:RDF><cc:Work
         rdf:about=""><dc:format>image/svg+xml</dc:format><dc:type
           rdf:resource="http://purl.org/dc/dcmitype/StillImage" /><dc:title /></cc:Work></rdf:RDF></metadata><defs
     id="defs760"><defs
       id="defs438"><rect
         height="192.2"
         width="78.800003"
         y="1.7"
         x="66"
         id="SVGID_31_" /></defs><clipPath
       id="SVGID_32_"><use
         id="use440"
         style="overflow:visible"
         xlink:href="#SVGID_31_"
         x="0"
         y="0"
         width="100%"
         height="100%" /></clipPath></defs><sodipodi:namedview
     pagecolor="#ffffff"
     bordercolor="#666666"
     borderopacity="1"
     objecttolerance="10"
     gridtolerance="10"
     guidetolerance="10"
     inkscape:pageopacity="0"
     inkscape:pageshadow="2"
     inkscape:window-width="1600"
     inkscape:window-height="818"
     id="namedview758"
     showgrid="false"
     inkscape:zoom="0.77467904"
     inkscape:cx="24.263994"
     inkscape:cy="67.378063"
     inkscape:window-x="0"
     inkscape:window-y="0"
     inkscape:window-maximized="1"
     inkscape:current-layer="Layer_1" /><style
     type="text/css"
     id="style2">
	.st0{clip-path:url(#SVGID_2_);fill:#D71F28;}
	.st1{clip-path:url(#SVGID_2_);fill:#FFFFFF;}
	.st2{clip-path:url(#SVGID_2_);fill:#28B29E;}
	.st3{clip-path:url(#SVGID_4_);fill:#FFDD73;}
	.st4{clip-path:url(#SVGID_4_);fill:#D71F28;}
	.st5{clip-path:url(#SVGID_4_);fill:#FFFFFF;}
	.st6{clip-path:url(#SVGID_4_);fill:#163A64;}
	.st7{clip-path:url(#SVGID_4_);fill:#CCD0D4;}
	.st8{clip-path:url(#SVGID_4_);fill:#CB7D55;}
	.st9{clip-path:url(#SVGID_4_);fill:#3BAA9C;}
	.st10{clip-path:url(#SVGID_4_);fill:#221718;}
	.st11{clip-path:url(#SVGID_4_);fill:#D99F7C;}
	.st12{clip-path:url(#SVGID_4_);fill:#F7B37B;}
	.st13{clip-path:url(#SVGID_4_);fill:#E56859;}
	.st14{clip-path:url(#SVGID_4_);fill:#D6D0CD;}
	.st15{clip-path:url(#SVGID_4_);fill:#867C78;}
	.st16{clip-path:url(#SVGID_6_);fill:#FFFFFF;}
	.st17{clip-path:url(#SVGID_6_);fill:#163A64;}
	.st18{display:none;}
	.st19{display:inline;}
	.st20{display:inline;clip-path:url(#SVGID_8_);fill:none;stroke:#FFFFFF;stroke-width:1.17;}
	.st21{clip-path:url(#SVGID_10_);fill:#F3C8AA;}
	.st22{clip-path:url(#SVGID_10_);fill:#1C1015;}
	.st23{clip-path:url(#SVGID_10_);fill:#D71F29;}
	.st24{clip-path:url(#SVGID_10_);}
	.st25{clip-path:url(#SVGID_12_);}
	.st26{clip-path:url(#SVGID_14_);fill:#867C78;}
	.st27{clip-path:url(#SVGID_10_);fill:#C67C59;}
	.st28{clip-path:url(#SVGID_16_);}
	.st29{clip-path:url(#SVGID_18_);fill:#D6D0CD;}
	.st30{clip-path:url(#SVGID_10_);fill:#FFFFFF;}
	.st31{clip-path:url(#SVGID_10_);fill:#153659;}
	.st32{clip-path:url(#SVGID_10_);fill:#5E534F;}
	.st33{clip-path:url(#SVGID_20_);}
	.st34{clip-path:url(#SVGID_22_);fill:#867C78;}
	.st35{clip-path:url(#SVGID_24_);}
	.st36{clip-path:url(#SVGID_26_);fill:#867C78;}
	.st37{clip-path:url(#SVGID_28_);fill:#CB7D54;}
	.st38{clip-path:url(#SVGID_28_);fill:#35292B;}
	.st39{clip-path:url(#SVGID_28_);fill:#163A64;}
	.st40{clip-path:url(#SVGID_28_);fill:#FFFFFF;}
	.st41{clip-path:url(#SVGID_28_);fill:#E21F26;}
	.st42{clip-path:url(#SVGID_28_);fill:#231718;}
	.st43{clip-path:url(#SVGID_28_);fill:#D6D0CD;}
	.st44{clip-path:url(#SVGID_28_);fill:#867C78;}
	.st45{clip-path:url(#SVGID_28_);fill:#D71F29;}
	.st46{clip-path:url(#SVGID_28_);fill:#0D4672;}
	.st47{clip-path:url(#SVGID_28_);fill-rule:evenodd;clip-rule:evenodd;fill:#231718;}
	.st48{clip-path:url(#SVGID_30_);fill:#231718;}
	.st49{clip-path:url(#SVGID_30_);fill:#FFFFFF;}
	.st50{clip-path:url(#SVGID_30_);fill:#90BDDF;}
	.st51{clip-path:url(#SVGID_30_);fill:#E21F26;}
	.st52{clip-path:url(#SVGID_30_);fill:#B1A6A5;}
	.st53{clip-path:url(#SVGID_30_);fill:#D6D0CD;}
	.st54{clip-path:url(#SVGID_30_);fill:#CCD0D4;}
	.st55{clip-path:url(#SVGID_30_);fill:#F5D0B2;}
	.st56{clip-path:url(#SVGID_30_);fill:#CB7D55;}
	.st57{clip-path:url(#SVGID_30_);fill-rule:evenodd;clip-rule:evenodd;fill:#CB7D55;}
	.st58{clip-path:url(#SVGID_32_);fill:#CB7D55;}
	.st59{clip-path:url(#SVGID_32_);fill:#163A64;}
	.st60{clip-path:url(#SVGID_32_);fill:#90BDDF;}
	.st61{clip-path:url(#SVGID_32_);fill:#F5D0B2;}
	.st62{clip-path:url(#SVGID_32_);fill:#221718;}
	.st63{clip-path:url(#SVGID_32_);fill:#EEBC35;}
	.st64{clip-path:url(#SVGID_32_);fill:#FFFFFF;}
	.st65{clip-path:url(#SVGID_32_);fill:#5C544F;}
	.st66{clip-path:url(#SVGID_32_);fill:#E21F26;}
	.st67{clip-path:url(#SVGID_32_);fill:#D6D0CD;}
	.st68{clip-path:url(#SVGID_32_);fill:#D71F28;}
	.st69{clip-path:url(#SVGID_32_);fill:#B1A6A5;}
	.st70{clip-path:url(#SVGID_34_);fill:#231718;}
	.st71{clip-path:url(#SVGID_34_);fill:#F5D0B2;}
	.st72{clip-path:url(#SVGID_34_);fill:#90BDDF;}
	.st73{clip-path:url(#SVGID_34_);fill:#D71F29;}
	.st74{clip-path:url(#SVGID_34_);fill:#251B1C;}
	.st75{clip-path:url(#SVGID_34_);fill:#5C5450;}
	.st76{clip-path:url(#SVGID_34_);fill:#FFFFFF;}
	.st77{clip-path:url(#SVGID_36_);fill:#E21F26;}
	.st78{clip-path:url(#SVGID_36_);fill:#F5D0B2;}
	.st79{clip-path:url(#SVGID_36_);fill:#CB7D55;}
	.st80{clip-path:url(#SVGID_36_);fill:#FFFFFF;}
	.st81{clip-path:url(#SVGID_36_);fill:#231718;}
	.st82{clip-path:url(#SVGID_36_);}
	.st83{clip-path:url(#SVGID_38_);}
	.st84{clip-path:url(#SVGID_40_);fill:#ACB5BC;}
	.st85{clip-path:url(#SVGID_36_);fill:#D6D0CD;}
	.st86{clip-path:url(#SVGID_42_);fill:#F5D0B2;}
	.st87{clip-path:url(#SVGID_42_);fill:#E15A28;}
	.st88{clip-path:url(#SVGID_42_);fill:#35292B;}
	.st89{clip-path:url(#SVGID_42_);fill:#163A64;}
	.st90{clip-path:url(#SVGID_42_);fill:#FFFFFF;}
	.st91{clip-path:url(#SVGID_42_);fill:#D99F7C;}
	.st92{clip-path:url(#SVGID_42_);fill-rule:evenodd;clip-rule:evenodd;fill:#E15A28;}
	.st93{clip-path:url(#SVGID_42_);fill:#231718;}
	.st94{clip-path:url(#SVGID_42_);fill:#E21F26;}
	.st95{clip-path:url(#SVGID_42_);fill:#D6D0CD;}
	.st96{clip-path:url(#SVGID_42_);fill:#867C78;}
	.st97{clip-path:url(#SVGID_42_);fill:#D71F29;}
	.st98{clip-path:url(#SVGID_42_);fill:#0D4672;}
</style><g
     id="XMLID_1_"
     class="st18"
     style="display:none"
     transform="translate(0,102.89999)"><defs
       id="defs129"><rect
         id="SVGID_7_"
         x="-1270.6"
         y="-248.89999"
         width="2700"
         height="7946.7002" /></defs><clipPath
       id="SVGID_8_"
       class="st19"
       style="display:inline"><use
         xlink:href="#SVGID_7_"
         style="overflow:visible"
         id="use131"
         x="0"
         y="0"
         width="100%"
         height="100%" /></clipPath><path
       class="st20"
       d="m 472.6,0 c 0,0 -12.9,0 -12.9,12.9 v 191.3 c 0,0 0,12.9 12.9,12.9 h 192.1 c 0,0 12.9,0 12.9,-12.9 V 12.9 c 0,0 0,-12.9 -12.9,-12.9 z"
       clip-path="url(#SVGID_8_)"
       id="path134"
       inkscape:connector-curvature="0"
       style="display:inline;fill:none;stroke:#ffffff;stroke-width:1.16999996" /></g><g
     id="g5493"
     transform="matrix(4.1365257,0,0,4.1365257,-526.78427,-172.59096)"><path
       sodipodi:nodetypes="cssscscccccc"
       transform="translate(86.941712,54.128579)"
       class="st61"
       d="m 119.9,31.5 v -7.4 c 0,-8.1 -6.5,-13.6 -14.6,-13.6 -8.1,0 -14.6,5.5 -14.6,13.6 v 7.4 c -1.4,0.4 -2.5,1.6 -2.5,3.1 0,1.6 1.1,2.9 2.6,3.2 0.6,5.2 4,9.5 8.6,11.5 3.95318,1.533005 8.71939,1.533005 11.8,0 4.6,-2 7.9,-6.4 8.6,-11.5 1.5,-0.3 2.6,-1.6 2.6,-3.2 -0.1,-1.4 -1.1,-2.7 -2.5,-3.1"
       clip-path="url(#SVGID_32_)"
       id="path463"
       inkscape:connector-curvature="0"
       style="fill:#f5d0b2" /><path
       transform="translate(86.941712,54.128579)"
       class="st62"
       d="m 113,33.4 c 0,0.5 -0.4,0.9 -0.9,0.9 -0.5,0 -0.9,-0.4 -0.9,-0.9 0,-0.5 0.4,-0.9 0.9,-0.9 0.5,0 0.9,0.3 0.9,0.9"
       clip-path="url(#SVGID_32_)"
       id="path467"
       inkscape:connector-curvature="0"
       style="fill:#221718" /><path
       transform="translate(86.941712,54.128579)"
       class="st62"
       d="m 99.7,33.4 c 0,0.5 -0.4,0.9 -0.9,0.9 -0.5,0 -0.9,-0.4 -0.9,-0.9 0,-0.5 0.4,-0.9 0.9,-0.9 0.5,0 0.9,0.3 0.9,0.9"
       clip-path="url(#SVGID_32_)"
       id="path469"
       inkscape:connector-curvature="0"
       style="fill:#221718" /><path
       transform="translate(86.441712,54.128579)"
       class="st63"
       d="m 115.7,30.5 c -0.4,0 -0.6,-0.1 -0.8,-0.2 -0.1,-0.1 -0.1,-0.1 -0.2,-0.1 -0.1,0 -0.1,0 -0.2,0.1 -0.2,0.1 -0.4,0.2 -0.8,0.2 -0.4,0 -0.6,-0.1 -0.8,-0.2 -0.1,-0.1 -0.1,-0.1 -0.2,-0.1 -0.1,0 -0.1,0 -0.2,0.1 -0.1,0.1 -0.4,0.2 -0.8,0.2 -0.4,0 -0.6,-0.1 -0.8,-0.2 -0.1,-0.1 -0.1,-0.1 -0.2,-0.1 -0.1,0 -0.1,0 -0.2,0.1 -0.2,0.1 -0.4,0.2 -0.8,0.2 -0.4,0 -0.6,-0.1 -0.8,-0.2 -0.1,-0.1 -0.1,-0.1 -0.2,-0.1 -0.3,0 -0.6,-0.3 -0.6,-0.6 0,-0.3 0.3,-0.6 0.6,-0.6 0.4,0 0.6,0.1 0.8,0.2 0.1,0.1 0.1,0.1 0.2,0.1 0.1,0 0.1,0 0.2,-0.1 0.2,-0.1 0.4,-0.2 0.8,-0.2 0.4,0 0.6,0.1 0.8,0.2 0.1,0.1 0.1,0.1 0.2,0.1 0.1,0 0.1,0 0.2,-0.1 0.2,-0.1 0.4,-0.2 0.8,-0.2 0.4,0 0.6,0.1 0.8,0.2 0.1,0.1 0.1,0.1 0.2,0.1 0.1,0 0.1,0 0.2,-0.1 0.1,-0.1 0.4,-0.2 0.8,-0.2 0.4,0 0.6,0.1 0.8,0.2 0.1,0.1 0.1,0.1 0.2,0.1 0.3,0 0.6,0.3 0.6,0.6 0,0.3 -0.3,0.6 -0.6,0.6"
       clip-path="url(#SVGID_32_)"
       id="path471"
       inkscape:connector-curvature="0"
       style="fill:#d68f4d;fill-opacity:1" /><path
       transform="translate(86.641712,54.128579)"
       class="st63"
       d="m 101.9,30.5 c -0.4,0 -0.6,-0.1 -0.8,-0.2 -0.1,-0.1 -0.1,-0.1 -0.2,-0.1 -0.1,0 -0.1,0 -0.2,0.1 -0.2,0.1 -0.4,0.2 -0.8,0.2 -0.4,0 -0.6,-0.1 -0.8,-0.2 -0.1,-0.1 -0.1,-0.1 -0.2,-0.1 -0.1,0 -0.1,0 -0.2,0.1 -0.1,0.1 -0.4,0.2 -0.8,0.2 -0.4,0 -0.6,-0.1 -0.8,-0.2 -0.1,-0.1 -0.1,-0.1 -0.2,-0.1 -0.1,0 -0.1,0 -0.2,0.1 -0.2,0.1 -0.4,0.2 -0.8,0.2 -0.4,0 -0.6,-0.1 -0.8,-0.2 -0.1,-0.1 -0.1,-0.1 -0.2,-0.1 -0.3,0 -0.6,-0.3 -0.6,-0.6 0,-0.3 0.3,-0.6 0.6,-0.6 0.4,0 0.6,0.1 0.8,0.2 0.1,0.1 0.1,0.1 0.2,0.1 0.1,0 0.1,0 0.2,-0.1 0.2,-0.1 0.4,-0.2 0.8,-0.2 0.4,0 0.6,0.1 0.8,0.2 0.1,0.1 0.1,0.1 0.2,0.1 0.1,0 0.1,0 0.2,-0.1 0.2,-0.1 0.4,-0.2 0.8,-0.2 0.4,0 0.6,0.1 0.8,0.2 0.1,0.1 0.1,0.1 0.2,0.1 0.1,0 0.1,0 0.2,-0.1 0.2,-0.1 0.4,-0.2 0.8,-0.2 0.4,0 0.6,0.1 0.8,0.2 0.1,0.1 0.1,0.1 0.2,0.1 0.3,0 0.6,0.3 0.6,0.6 0,0.3 -0.3,0.6 -0.6,0.6"
       clip-path="url(#SVGID_32_)"
       id="path473"
       inkscape:connector-curvature="0"
       style="fill:#d68f4d;fill-opacity:1" /><path
       transform="translate(86.941712,54.128579)"
       class="st63"
       d="M 120.3,14.6 C 118,8.4 107.7,9 105.5,2.1 c -10.1,1.2 -14.8,8 -13.4,13.5 -1.2,1.1 -1.9,2.6 -2.4,4.5 -0.7,3.2 -0.5,7.7 0.1,13.9 0.2,-0.2 0.3,-0.7 0.4,-1.3 H 94 V 20 c 0.1,-0.1 0.3,-0.3 0.4,-0.4 2.2,2 5.9,3.3 11,3.1 1,0 6.3,0.3 10.3,-1 v 10.6 h 3.7 c 0.2,0.9 0.3,1.5 0.5,1.7 0.6,-5.4 2.4,-13.9 0.4,-19.4"
       clip-path="url(#SVGID_32_)"
       id="path479"
       inkscape:connector-curvature="0"
       style="fill:#d68f4d;fill-opacity:1" /><path
       transform="translate(86.441712,55.028579)"
       class="st58"
       d="m 118,33.4 c -0.1,2.6 -2,4.5 -4.7,4.6 -0.1,0 -0.2,0 -0.3,0 -1.4,0 -3,-0.7 -4,-1.8 -1,-1.1 -1.5,-2.5 -1.4,-4.2 0.2,-2.3 4.9,-2.5 6.4,-2.5 0.8,0 1.4,0 1.7,0.1 1.7,0.4 2.4,1.5 2.3,3.8 m -16.1,2.9 c -1,1.1 -2.5,1.8 -4,1.8 -0.1,0 -0.2,0 -0.3,0 -2.8,-0.2 -4.6,-2 -4.7,-4.6 -0.1,-2.3 0.6,-3.5 2.3,-3.7 0.3,0 0.9,-0.1 1.7,-0.1 1.5,0 6.2,0.2 6.4,2.5 0.1,1.6 -0.4,3 -1.4,4.1 M 119.4,30 c -0.4,0 -1.1,-0.3 -1.8,-0.7 -0.5,-0.3 -1.1,-0.6 -1.8,-0.6 -0.3,0 -1,-0.1 -1.8,-0.1 -1.8,0 -5.7,0.2 -7,2.2 -0.4,-0.3 -1,-0.5 -1.5,-0.5 -0.6,0 -1.1,0.2 -1.5,0.5 -1.3,-2 -5.2,-2.2 -7,-2.2 -0.8,0 -1.5,0 -1.8,0.1 -0.7,0.1 -1.3,0.3 -1.8,0.6 -0.7,0.4 -1.5,0.7 -1.8,0.7 v 1.4 c 0.2,0 0.4,0 0.5,-0.1 -0.1,0.6 -0.2,1.3 -0.2,2.1 0.1,3.2 2.4,5.4 5.7,5.7 0.1,0 0.2,0 0.3,0 1.7,0 3.6,-0.8 4.8,-2.1 1.1,-1.2 1.7,-2.8 1.7,-4.6 0.2,-0.5 0.6,-0.8 1.1,-0.8 0.5,0 0.9,0.3 1.1,0.8 0,1.8 0.5,3.4 1.7,4.6 1.2,1.3 3,2.1 4.8,2.1 0.1,0 0.2,0 0.3,0 3.3,-0.2 5.6,-2.4 5.7,-5.7 0,-0.8 0,-1.5 -0.2,-2.1 0.2,0 0.4,0.1 0.5,0.1 z"
       clip-path="url(#SVGID_32_)"
       id="path481"
       inkscape:connector-curvature="0"
       style="fill:#2e333c;fill-opacity:1" /></g><g
     aria-label="Stanlee"
     style="font-style:normal;font-weight:normal;font-size:39.99999619px;line-height:125%;font-family:sans-serif;letter-spacing:-17.55000114px;word-spacing:0px;fill:#b74141;fill-opacity:1;stroke:none;stroke-width:0.99999994px;stroke-linecap:butt;stroke-linejoin:miter;stroke-opacity:1"
     id="text37"><path
       d="m 456.9921,96.735999 q 8.448,9.984001 8.448,11.904001 0,1.92 -1.92,4.224 -9.024,10.176 -21.12,20.544 -2.688,2.304 -4.032,2.304 -1.92,0 -1.92,-2.88 0,-3.072 2.496,-8.064 2.688,-4.992 2.688,-5.76 0,-0.768 -0.768,-0.768 -0.576,0 -1.728,0.384 -22.07999,7.872 -30.71999,24.76799 -1.92,3.84 -1.92,6.336 0,4.992 7.68,9.408 1.152,0.768 10.36799,5.568 18.624,9.984 23.424,16.128 7.68,9.6 7.68,18.816 0,3.648 -2.112,7.68 -1.92,3.84 -4.992,5.76 -32.44799,20.16 -57.79199,20.16 -13.44,0 -13.44,-12.288 0,-4.032 2.688,-7.68 -4.608,-3.264 -4.608,-6.912 0,-3.84 5.184,-7.68 12.288,-9.216 39.55199,-9.216 2.88,0 6.912,2.112 4.032,1.92 6.528,4.224 4.8,-2.688 4.8,-4.8 0,-2.112 -2.496,-4.224 -3.648,-2.688 -13.632,-7.104 -9.79199,-4.416 -12.47999,-5.952 -8.064,-4.608 -12.48,-13.248 -4.224,-8.64 -4.224,-18.23999 0,-9.792 4.8,-17.664 4.992,-8.064 13.824,-14.016 13.43999,-9.024 33.59999,-16.512001 2.688,-0.768 4.224,-0.768 4.416,0 7.488,3.456 z m -36.48,106.367991 q -1.91999,-0.384 -4.41599,-0.384 -2.496,0 -9.792,2.304 -7.104,2.304 -7.104,5.184 0,1.152 1.344,1.152 5.184,0 19.96799,-8.256 z"
       style="font-style:normal;font-variant:normal;font-weight:normal;font-stretch:normal;font-size:191.99998474px;font-family:Devonshire;-inkscape-font-specification:Devonshire;letter-spacing:-13.99999905px;word-spacing:0px;stroke-width:0.99999994px;fill:#b74141;fill-opacity:1"
       id="path262" /><path
       d="m 476.4301,144.73599 15.168,-0.768 q 5.952,0 5.952,7.68 0,3.84 -2.496,5.76 -6.144,5.568 -21.12,7.68 -1.92,18.24 -1.92,30.336 0,12.096 1.728,12.096 1.152,0 8.064,-6.144 6.912,-6.144 7.68,-6.144 3.264,0 3.264,9.984 0,9.792 -3.648,19.392 -3.648,9.6 -10.368,9.6 -2.88,0 -5.76,-2.112 -2.88,-1.92 -4.416,-3.84 -1.344,-2.112 -4.032,-6.144 -2.496,-4.032 -3.072,-4.8 -5.184,-7.104 -5.76,-14.016 -0.384,-7.104 -0.384,-16.512 0,-9.408 1.152,-20.352 -5.952,-0.192 -9.984,-4.224 -3.84,-4.032 -5.952,-9.6 -2.304,-5.76 -2.304,-6.528 0,-2.496 2.88,-2.496 l 18.432,1.152 q 0.96,-5.95199 3.072,-16.51199 3.264,-15.36 3.264,-17.856 l -0.384,-3.648 q 0,-3.072 3.456,-3.072 3.456,0 8.448,3.456 4.992,3.456 4.992,6.528 0,1.344 -1.344,5.376 -1.728,6.144 -4.608,25.72799 z"
       style="font-style:normal;font-variant:normal;font-weight:normal;font-stretch:normal;font-size:191.99998474px;font-family:Devonshire;-inkscape-font-specification:Devonshire;letter-spacing:-13.99999905px;word-spacing:0px;stroke-width:0.99999994px;fill:#b74141;fill-opacity:1"
       id="path264" /><path
       d="m 528.1961,203.87199 q -15.744,28.224 -24,28.224 -5.952,0 -10.752,-7.296 -1.344,-1.92 -2.88,-5.952 -1.536,-4.224 -3.84,-7.68 -2.112,-3.456 -2.112,-9.216 0,-5.952 2.304,-10.56 15.744,-31.104 33.216,-42.624 2.304,-1.728 5.376,-1.728 3.072,0 7.68,3.456 2.688,2.688 3.264,4.608 0.96,4.224 0.96,5.184 6.72,2.304 6.72,8.448 0,4.224 -2.304,19.2 -2.304,14.784 -2.688,22.08 0,4.032 2.688,4.032 3.072,0 10.94399,-10.752 8.064,-10.752 9.216,-10.752 1.92,0 1.92,6.336 l -0.384,9.408 q 0,5.376 -4.8,14.784 -4.8,9.216 -12.28799,9.216 -4.608,0 -7.296,-3.072 -0.96,-0.96 -2.88,-3.84 -5.952,-8.64 -8.064,-21.504 z m 1.728,-44.352 q -24.192,22.08 -30.72,50.496 19.392,-16.704 30.72,-50.496 z"
       style="font-style:normal;font-variant:normal;font-weight:normal;font-stretch:normal;font-size:191.99998474px;font-family:Devonshire;-inkscape-font-specification:Devonshire;letter-spacing:-13.99999905px;word-spacing:0px;stroke-width:0.99999994px;fill:#b74141;fill-opacity:1"
       id="path266" /><path
       d="m 616.33409,186.59199 q 0,9.408 -0.96,16.32 -0.96,6.912 -6.912,18.624 -5.952,11.52 -11.712,11.52 -2.496,0 -4.8,-2.688 -11.328,-13.632 -11.328,-25.92 0,-3.648 2.496,-16.704 3.456,-19.584 3.456,-21.696 0,-2.304 -0.768,-2.304 -0.576,0 -1.344,1.536 -4.992,8.832 -8.064,20.16 -3.072,11.136 -4.032,18.816 -0.96,7.68 -2.112,21.504 0,4.8 -2.496,4.8 -1.152,0 -3.84,-2.112 -10.368,-8.832 -10.368,-24.192 0,-6.528 1.152,-18.048 1.344,-11.52 1.536,-15.936 2.112,-26.688 5.184,-26.688 1.728,0 2.496,3.84 0.768,3.648 0.768,8.448 0,4.608 0.192,8.448 0.384,3.84 1.536,3.84 1.152,0 3.264,-6.144 2.112,-6.144 6.144,-12.288 4.224,-6.336 9.024,-6.336 4.8,0 8.448,2.112 8.256,4.224 8.256,17.664 0,4.608 -1.152,11.328 -1.152,6.72 -2.112,14.784 -0.768,7.872 -0.768,9.024 0,0.96 0.768,0.96 1.536,0 7.68,-7.68 6.336,-7.68 8.64,-7.68 1.728,0 1.728,2.688 z"
       style="font-style:normal;font-variant:normal;font-weight:normal;font-stretch:normal;font-size:191.99998474px;font-family:Devonshire;-inkscape-font-specification:Devonshire;letter-spacing:-13.99999905px;word-spacing:0px;stroke-width:0.99999994px;fill:#b74141;fill-opacity:1"
       id="path268" /><path
       d="m 620.10608,93.855999 -0.96,-5.76 q 0,-2.303999 2.496,-2.303999 0.96,0 2.496,0.384 11.51999,2.303999 11.51999,13.247998 0,2.688002 -0.57599,5.952002 -0.576,3.072 -2.304,13.056 -1.536,9.984 -2.304,14.4 l -1.92,13.24799 q -4.608,30.336 -4.608,55.872 0,5.568 2.688,5.568 0.96,0 2.112,-1.152 13.43999,-16.896 15.55199,-20.544 2.304,-3.84 3.264,-3.84 1.152,0 1.152,2.688 0,2.496 -1.152,9.792 -0.96,7.104 -1.152,9.216 -0.192,1.92 -0.96,4.416 -0.576,2.496 -1.152,4.032 -0.384,1.344 -1.92,4.032 -1.536,2.496 -2.112,3.264 -4.032,5.376 -6.52799,8.448 -2.304,2.88 -5.568,2.88 -3.072,0 -5.952,-2.88 -2.88,-2.88 -4.224,-5.184 -1.152,-2.304 -3.456,-7.104 -6.72,-13.056 -6.72,-27.456 0,-12.288 2.688,-30.144 2.88,-17.85599 3.456,-22.27199 -4.416,0 -4.416,-3.84 0,-1.536 0.384,-2.88 0.576,-1.536 3.648,-10.752 6.528,-18.624002 6.528,-24.384001 z"
       style="font-style:normal;font-variant:normal;font-weight:normal;font-stretch:normal;font-size:191.99998474px;font-family:Devonshire;-inkscape-font-specification:Devonshire;letter-spacing:-13.99999905px;word-spacing:0px;stroke-width:0.99999994px;fill:#b74141;fill-opacity:1"
       id="path270" /><path
       d="m 695.43107,203.87199 q 0,29.184 -29.56799,29.184 -12.288,0 -18.048,-6.336 -5.568,-6.336 -9.792,-19.392 -1.536,-4.992 -1.536,-10.56 0,-5.76 4.992,-15.168 5.184,-9.6 11.328,-16.704 0.768,-10.56 4.8,-10.56 2.112,0 2.88,2.496 4.032,-3.648 9.79199,-7.104 5.76,-3.456 10.368,-3.456 4.608,0 9.408,5.376 4.992,5.376 4.992,11.136 0,5.568 -7.872,15.36 -14.784,18.432 -23.23199,18.432 -6.144,0 -9.6,-10.176 -0.192,0.384 -1.92,3.264 -1.536,2.688 -2.304,4.032 -0.576,1.344 -1.728,3.648 -1.92,4.416 -1.92,7.872 0,7.872 7.872,7.872 13.056,0 22.07999,-5.376 9.216,-5.568 18.24,-16.704 0.768,8.448 0.768,12.864 z m -31.29599,-23.232 q 3.072,0 9.02399,-7.488 6.144,-7.488 6.144,-10.176 0,-2.88 -2.112,-2.88 -1.92,0 -6.912,4.992 -4.79999,4.992 -7.67999,8.64 -0.384,2.304 -0.384,3.456 0,3.456 1.92,3.456 z"
       style="font-style:normal;font-variant:normal;font-weight:normal;font-stretch:normal;font-size:191.99998474px;font-family:Devonshire;-inkscape-font-specification:Devonshire;letter-spacing:-13.99999905px;word-spacing:0px;stroke-width:0.99999994px;fill:#b74141;fill-opacity:1"
       id="path272" /><path
       d="m 746.30607,203.87199 q 0,29.184 -29.56799,29.184 -12.288,0 -18.048,-6.336 -5.568,-6.336 -9.792,-19.392 -1.536,-4.992 -1.536,-10.56 0,-5.76 4.992,-15.168 5.184,-9.6 11.328,-16.704 0.768,-10.56 4.8,-10.56 2.112,0 2.88,2.496 4.032,-3.648 9.79199,-7.104 5.76,-3.456 10.368,-3.456 4.608,0 9.408,5.376 4.992,5.376 4.992,11.136 0,5.568 -7.872,15.36 -14.784,18.432 -23.23199,18.432 -6.144,0 -9.6,-10.176 -0.192,0.384 -1.92,3.264 -1.536,2.688 -2.304,4.032 -0.576,1.344 -1.728,3.648 -1.92,4.416 -1.92,7.872 0,7.872 7.872,7.872 13.056,0 22.07999,-5.376 9.216,-5.568 18.24,-16.704 0.768,8.448 0.768,12.864 z m -31.29599,-23.232 q 3.072,0 9.02399,-7.488 6.144,-7.488 6.144,-10.176 0,-2.88 -2.112,-2.88 -1.92,0 -6.912,4.992 -4.79999,4.992 -7.67999,8.64 -0.384,2.304 -0.384,3.456 0,3.456 1.92,3.456 z"
       style="font-style:normal;font-variant:normal;font-weight:normal;font-stretch:normal;font-size:191.99998474px;font-family:Devonshire;-inkscape-font-specification:Devonshire;letter-spacing:-13.99999905px;word-spacing:0px;stroke-width:0.99999994px;fill:#b74141;fill-opacity:1"
       id="path274" /></g></svg>