<?xml version="1.0" encoding="UTF-8" standalone="no"?>
<!-- Created with Inkscape (http://www.inkscape.org/) -->

<svg
   xmlns:dc="http://purl.org/dc/elements/1.1/"
   xmlns:cc="http://creativecommons.org/ns#"
   xmlns:rdf="http://www.w3.org/1999/02/22-rdf-syntax-ns#"
   xmlns:svg="http://www.w3.org/2000/svg"
   xmlns="http://www.w3.org/2000/svg"
   xmlns:xlink="http://www.w3.org/1999/xlink"
   xmlns:sodipodi="http://sodipodi.sourceforge.net/DTD/sodipodi-0.dtd"
   xmlns:inkscape="http://www.inkscape.org/namespaces/inkscape"
   width="885"
   height="300"
   viewBox="0 0 884.99996 299.99998"
   id="svg2"
   version="1.1"
   inkscape:version="0.91 r13725"
   sodipodi:docname="banner.svg">
  <defs
     id="defs4">
    <linearGradient
       gradientUnits="userSpaceOnUse"
       gradientTransform="matrix(1.7471283,0,0,0.57236768,-863.53702,648.40906)"
       y2="1396.6064"
       x2="1143.8971"
       y1="1396.6064"
       x1="1116.7386"
       id="linearGradient3504"
       xlink:href="#linearGradient3365" />
    <linearGradient
       id="linearGradient3365">
      <stop
         stop-color="#dccb94"
         id="stop3367"
         offset="0" />
      <stop
         stop-color="#c4a95a"
         id="stop3369"
         offset="1" />
    </linearGradient>
    <linearGradient
       gradientUnits="userSpaceOnUse"
       y2="457.83206"
       x2="3500.5325"
       y1="457.83206"
       x1="3462.4375"
       gradientTransform="matrix(0.56101715,0,0,1.7824763,-863.53702,648.40906)"
       id="linearGradient3498"
       xlink:href="#linearGradient3357" />
    <linearGradient
       id="linearGradient3357">
      <stop
         stop-color="#bb9652"
         id="stop3359"
         offset="0" />
      <stop
         stop-color="#d4bf8a"
         id="stop3361"
         offset="1" />
    </linearGradient>
    <linearGradient
       gradientUnits="userSpaceOnUse"
       gradientTransform="matrix(0.8931433,0,0,1.1196409,-863.53702,648.40906)"
       y2="758.5589"
       x2="2230.0762"
       y1="758.5589"
       x1="2235.9124"
       id="linearGradient3501"
       xlink:href="#linearGradient3373" />
    <linearGradient
       id="linearGradient3373">
      <stop
         stop-color="#a28650"
         id="stop3375"
         offset="0" />
      <stop
         stop-color="#dac491"
         id="stop3377"
         offset="1" />
    </linearGradient>
  </defs>
  <sodipodi:namedview
     id="base"
     pagecolor="#ffffff"
     bordercolor="#666666"
     borderopacity="1.0"
     inkscape:pageopacity="0.0"
     inkscape:pageshadow="2"
     inkscape:zoom="0.98994949"
     inkscape:cx="446.7128"
     inkscape:cy="176.65195"
     inkscape:document-units="px"
     inkscape:current-layer="layer1"
     showgrid="false"
     inkscape:window-width="1600"
     inkscape:window-height="873"
     inkscape:window-x="0"
     inkscape:window-y="27"
     inkscape:window-maximized="1"
     units="px" />
  <metadata
     id="metadata7">
    <rdf:RDF>
      <cc:Work
         rdf:about="">
        <dc:format>image/svg+xml</dc:format>
        <dc:type
           rdf:resource="http://purl.org/dc/dcmitype/StillImage" />
        <dc:title />
      </cc:Work>
    </rdf:RDF>
  </metadata>
  <g
     inkscape:label="Capa 1"
     inkscape:groupmode="layer"
     id="layer1"
     transform="translate(0,-752.36226)">
    <g
       style="font-style:normal;font-weight:normal;font-size:40px;line-height:125%;font-family:sans-serif;letter-spacing:0px;word-spacing:0px;fill:#000000;fill-opacity:1;stroke:none;stroke-width:1px;stroke-linecap:butt;stroke-linejoin:miter;stroke-opacity:1"
       id="text4146">
      <g
         style="font-style:normal;font-weight:normal;font-size:40px;line-height:125%;font-family:sans-serif;letter-spacing:0px;word-spacing:0px;fill:#000000;fill-opacity:1;stroke:none;stroke-width:1px;stroke-linecap:butt;stroke-linejoin:miter;stroke-opacity:1"
         id="text4154" />
    </g>
    <g
       id="g4638"
       transform="translate(772.21163,59.285705)">
      <path
         style="fill:#d3bc5f;fill-rule:evenodd;stroke-width:1px;stroke-linejoin:round;stroke-miterlimit:4"
         inkscape:connector-curvature="0"
         stroke-miterlimit="4"
         id="path2894"
         d="m -590.2475,745.40229 76.29079,32.45846 0,112.91232 -76.29079,-56.30116 0,-89.06962 z" />
      <path
         style="fill:url(#linearGradient3504);fill-rule:evenodd;stroke-width:1px;stroke-linejoin:round;stroke-miterlimit:4"
         inkscape:connector-curvature="0"
         stroke-miterlimit="4"
         id="path2896"
         d="m -699.02532,762.23785 55.88678,43.79381 129.18183,-28.17091 -76.29079,-32.45846 -108.77782,16.83556 z" />
      <path
         style="fill:url(#linearGradient3498);fill-rule:evenodd;stroke-width:1px;stroke-linejoin:round;stroke-miterlimit:4"
         inkscape:connector-curvature="0"
         stroke-miterlimit="4"
         id="path2900"
         d="m -699.91325,761.35005 55.88678,43.79379 0,133.77101 -55.88677,-76.00288 0,-101.56192 z" />
      <path
         style="fill:none;fill-rule:evenodd;stroke:#784421;stroke-width:2.51111102px"
         inkscape:connector-curvature="0"
         id="path2575"
         d="m -640.45191,753.766 68.25378,36.47644" />
      <path
         style="fill:none;fill-rule:evenodd;stroke:#c7a768;stroke-width:2.51111102px"
         inkscape:connector-curvature="0"
         id="path3353"
         d="m -698.96757,762.24235 55.87222,43.63056 129.63611,-27.93613" />
      <path
         style="fill:none;fill-rule:evenodd;stroke:#c7a768;stroke-width:2.51111102px"
         inkscape:connector-curvature="0"
         id="path3355"
         d="m -643.40924,805.559 0,134.34445" />
      <path
         style="fill:none;fill-rule:evenodd;stroke:#6c5434;stroke-width:2.51111102px"
         inkscape:connector-curvature="0"
         id="path3351"
         d="m -698.28146,763.24235 0.31391,101.38611 54.93053,75.64729 130.26388,-48.65285 -0.31391,-113.3139 -76.58885,-32.64442 -108.60555,17.57777 z" />
      <path
         style="fill:url(#linearGradient3501);fill-rule:evenodd;stroke-width:1px;stroke-linejoin:round;stroke-miterlimit:4"
         inkscape:connector-curvature="0"
         stroke-miterlimit="4"
         id="path2898"
         d="m -643.13854,806.03166 0,133.77099 129.18183,-49.02958 0,-112.91232 -129.18183,28.17091 z" />
      <path
         sodipodi:nodetypes="ccccc"
         style="fill:#ffffff;fill-opacity:1;fill-rule:evenodd;stroke-width:1px;stroke-linejoin:round;stroke-miterlimit:4"
         inkscape:connector-curvature="0"
         stroke-miterlimit="4"
         id="path2898-1"
         d="m -630.30513,815.58901 0.0887,105.6012 106.95027,-38.22502 -0.71429,-92.86892 z" />
      <g
         transform="matrix(0.18281261,-0.05220978,0,0.18281261,-622.69326,821.2209)"
         id="g3393">
        <path
           inkscape:connector-curvature="0"
           style="fill:#c1c95a"
           d="m 16.516,224.391 c 0,166.249 137.882,115.798 239.484,115.621 101.602,0.176 239.484,50.627 239.484,-115.621 l -132.13,-58.107 -214.71,0 -132.128,58.107 z"
           id="path3" />
        <path
           inkscape:connector-curvature="0"
           style="fill:#a1c65d"
           d="m 99.097,273.639 14.136,0 c 12.816,-7.003 25.392,-18.411 36.376,-36.893 25.234,-42.457 79.794,-43.74 106.392,-43.74 26.598,0 81.158,1.283 106.392,43.74 10.984,18.482 23.56,29.891 36.376,36.893 l 14.136,0 0,-148.646 -313.808,0 0,148.646 z"
           id="path5" />
        <path
           inkscape:connector-curvature="0"
           style="fill:#82c35f"
           d="M 468.783,80.706 C 436.047,24.34 320.921,58.929 256.001,58.929 c -64.92,0 -180.048,-34.589 -212.784,21.777 -76.611,131.913 -8.184,217.707 24.552,217.707 25.308,0 57.48,-8.71 81.84,-64.419 25.234,-57.709 79.794,-59.452 106.392,-59.452 26.598,0 81.158,1.743 106.392,59.452 24.359,55.709 56.533,64.419 81.84,64.419 32.735,0 101.162,-85.794 24.55,-217.707 z"
           id="path7" />
        <g
           id="g9">
          <path
             inkscape:connector-curvature="0"
             style="fill:#73af55"
             d="m 38.122,281.598 c 1.055,0.106 2.099,0.297 3.168,0.297 31.926,0 57.807,-48.064 57.807,-107.355 0,-52.262 -20.118,-95.755 -46.75,-105.342 -3.484,3.345 -6.582,7.121 -9.13,11.507 -56.654,97.551 -33.984,169.831 -5.095,200.893 z"
             id="path11" />
          <path
             inkscape:connector-curvature="0"
             style="fill:#73af55"
             d="m 473.882,281.598 c -1.055,0.106 -2.099,0.297 -3.168,0.297 -31.926,0 -57.807,-48.064 -57.807,-107.355 0,-52.262 20.118,-95.755 46.75,-105.342 3.484,3.345 6.582,7.121 9.13,11.507 56.654,97.551 33.985,169.831 5.095,200.893 z"
             id="path13" />
        </g>
        <ellipse
           style="fill:#ffce56"
           cx="41.290001"
           cy="170.715"
           rx="41.290001"
           ry="78.452003"
           id="ellipse15" />
        <ellipse
           style="fill:#464655"
           cx="41.290001"
           cy="170.715"
           rx="16.516001"
           ry="45.418999"
           id="ellipse17" />
        <ellipse
           style="fill:#ffce56"
           cx="470.711"
           cy="170.715"
           rx="41.290001"
           ry="78.452003"
           id="ellipse19" />
        <ellipse
           style="fill:#464655"
           cx="470.711"
           cy="170.715"
           rx="16.516001"
           ry="45.418999"
           id="ellipse21" />
        <path
           inkscape:connector-curvature="0"
           style="fill:#ff825f"
           d="m 294.871,449.477 -26.549,-26.549 c 0.011,-0.218 0.065,-0.424 0.065,-0.645 l 0,-247.742 c 0,-6.839 -5.548,-12.387 -12.387,-12.387 -6.839,0 -12.387,5.548 -12.387,12.387 l 0,247.742 c 0,0.221 0.054,0.427 0.065,0.645 l -26.549,26.549 c -3.226,3.226 -3.226,8.452 0,11.678 3.226,3.226 8.451,3.226 11.677,0 l 26.549,-26.549 c 0.218,0.011 0.424,0.065 0.644,0.065 0.22,0 0.427,-0.054 0.645,-0.065 l 26.549,26.549 c 1.613,1.613 3.725,2.42 5.838,2.42 2.113,0 4.226,-0.806 5.838,-2.42 3.228,-3.226 3.228,-8.452 0.002,-11.678 z"
           id="path23" />
      </g>
    </g>
    <g
       style="font-style:normal;font-weight:normal;font-size:40px;line-height:125%;font-family:sans-serif;letter-spacing:0px;word-spacing:0px;fill:#000000;fill-opacity:1;stroke:none;stroke-width:1px;stroke-linecap:butt;stroke-linejoin:miter;stroke-opacity:1"
       id="text4799">
      <path
         d="m 310.18514,899.86477 0,26.46 -2.475,0 0,-63.27 15.12,0 q 10.71,0 16.245,4.59 5.58,4.59 5.58,13.77 0,4.005 -1.575,7.425 -1.53,3.375 -4.41,5.85 -2.88,2.43 -6.93,3.825 -4.005,1.35 -8.91,1.35 l -12.645,0 z m 0,-2.025 12.645,0 q 4.455,0 8.01,-1.26 3.6,-1.26 6.075,-3.465 2.52,-2.205 3.87,-5.22 1.35,-3.015 1.35,-6.48 0,-8.01 -4.815,-12.195 -4.815,-4.185 -14.49,-4.185 l -12.645,0 0,32.805 z"
         style="font-style:normal;font-variant:normal;font-weight:200;font-stretch:normal;font-size:89.99999237px;font-family:Lato;-inkscape-font-specification:'Lato Ultra-Light'"
         id="path4854" />
      <path
         d="m 365.2117,941.21977 q -0.225,0.45 -0.54,0.81 -0.315,0.36 -0.9,0.36 l -1.575,0 7.65,-17.145 -18.99,-43.29 1.8,0 q 0.495,0 0.765,0.27 0.315,0.27 0.405,0.54 l 16.56,37.98 q 0.36,0.945 0.675,2.07 0.315,-0.945 0.765,-2.07 l 16.47,-37.98 q 0.18,-0.36 0.45,-0.585 0.315,-0.225 0.675,-0.225 l 1.665,0 -25.875,59.265 z"
         style="font-style:normal;font-variant:normal;font-weight:200;font-stretch:normal;font-size:89.99999237px;font-family:Lato;-inkscape-font-specification:'Lato Ultra-Light'"
         id="path4856" />
      <path
         d="m 404.40388,899.86477 0,26.46 -2.475,0 0,-63.27 15.12,0 q 10.71,0 16.245,4.59 5.58,4.59 5.58,13.77 0,4.005 -1.575,7.425 -1.53,3.375 -4.41,5.85 -2.88,2.43 -6.93,3.825 -4.005,1.35 -8.91,1.35 l -12.645,0 z m 0,-2.025 12.645,0 q 4.455,0 8.01,-1.26 3.6,-1.26 6.075,-3.465 2.52,-2.205 3.87,-5.22 1.35,-3.015 1.35,-6.48 0,-8.01 -4.815,-12.195 -4.815,-4.185 -14.49,-4.185 l -12.645,0 0,32.805 z"
         style="font-style:normal;font-variant:normal;font-weight:200;font-stretch:normal;font-size:89.99999237px;font-family:Lato;-inkscape-font-specification:'Lato Ultra-Light'"
         id="path4858" />
      <path
         d="m 455.38044,926.32477 -2.475,0 0,-63.27 2.475,0 0,63.27 z"
         style="font-style:normal;font-variant:normal;font-weight:200;font-stretch:normal;font-size:89.99999237px;font-family:Lato;-inkscape-font-specification:'Lato Ultra-Light'"
         id="path4860" />
      <path
         d="m 521.71043,916.91977 q 0.18,0 0.495,0.225 l 0.945,0.99 q -1.98,1.98 -4.275,3.645 -2.295,1.62 -5.04,2.79 -2.745,1.17 -6.03,1.8 -3.24,0.675 -7.155,0.675 -6.43499,0 -11.87999,-2.25 -5.4,-2.295 -9.315,-6.48 -3.915,-4.23 -6.12,-10.215 -2.205,-5.985 -2.205,-13.41 0,-7.245 2.205,-13.185 2.205,-5.985 6.21,-10.215 4.05,-4.275 9.63,-6.615 5.625,-2.34 12.37499,-2.34 6.345,0 11.25,1.935 4.905,1.935 9.135,5.58 l -0.675,0.99 q -0.18,0.315 -0.72,0.315 -0.27,0 -0.945,-0.495 -0.63,-0.495 -1.71,-1.215 -1.035,-0.765 -2.565,-1.62 -1.485,-0.9 -3.51,-1.62 -2.025,-0.765 -4.59,-1.26 -2.565,-0.495 -5.67,-0.495 -6.11999,0 -11.24999,2.115 -5.13,2.115 -8.82,6.03 -3.69,3.915 -5.76,9.54 -2.025,5.58 -2.025,12.555 0,7.11 2.025,12.735 2.07,5.58 5.715,9.495 3.645,3.87 8.595,5.94 4.95,2.07 10.75499,2.07 3.645,0 6.525,-0.495 2.88,-0.495 5.265,-1.485 2.43,-0.99 4.455,-2.43 2.07,-1.44 4.095,-3.285 0.315,-0.315 0.585,-0.315 z"
         style="font-style:normal;font-variant:normal;font-weight:200;font-stretch:normal;font-size:89.99999237px;font-family:Lato;-inkscape-font-specification:'Lato Ultra-Light'"
         id="path4862" />
      <path
         d="m 550.5484,881.23477 q 4.725,0 8.37,1.665 3.69,1.62 6.21,4.635 2.52,2.97 3.825,7.2 1.305,4.23 1.305,9.405 0,5.175 -1.305,9.405 -1.305,4.185 -3.825,7.155 -2.52,2.97 -6.21,4.59 -3.645,1.575 -8.37,1.575 -4.725,0 -8.415,-1.575 -3.64499,-1.62 -6.16499,-4.59 -2.52,-2.97 -3.825,-7.155 -1.305,-4.23 -1.305,-9.405 0,-5.175 1.305,-9.405 1.305,-4.23 3.825,-7.2 2.52,-3.015 6.16499,-4.635 3.69,-1.665 8.415,-1.665 z m 0,43.74 q 4.32,0 7.56,-1.485 3.24,-1.485 5.4,-4.23 2.205,-2.745 3.285,-6.57 1.08,-3.825 1.08,-8.55 0,-4.725 -1.08,-8.595 -1.08,-3.87 -3.285,-6.615 -2.16,-2.79 -5.4,-4.275 -3.24,-1.53 -7.56,-1.53 -4.32,0 -7.56,1.53 -3.23999,1.485 -5.44499,4.275 -2.16,2.745 -3.24,6.615 -1.08,3.87 -1.08,8.595 0,4.725 1.08,8.55 1.08,3.825 3.24,6.57 2.205,2.745 5.44499,4.23 3.24,1.485 7.56,1.485 z"
         style="font-style:normal;font-variant:normal;font-weight:200;font-stretch:normal;font-size:89.99999237px;font-family:Lato;-inkscape-font-specification:'Lato Ultra-Light'"
         id="path4864" />
      <path
         d="m 583.32948,926.32477 0,-44.37 1.125,0 q 0.855,0 0.9,0.9 l 0.27,7.695 q 3.105,-4.275 7.38,-6.795 4.275,-2.52 9.405,-2.52 3.69,0 6.435,1.17 2.79,1.125 4.59,3.285 1.845,2.115 2.745,5.22 0.945,3.105 0.945,7.02 l 0,28.395 -2.385,0 0,-28.395 q 0,-3.465 -0.765,-6.21 -0.765,-2.745 -2.385,-4.635 -1.575,-1.935 -3.96,-2.925 -2.385,-1.035 -5.625,-1.035 -4.86,0 -9,2.565 -4.14,2.52 -7.29,7.02 l 0,33.615 -2.385,0 z"
         style="font-style:normal;font-variant:normal;font-weight:200;font-stretch:normal;font-size:89.99999237px;font-family:Lato;-inkscape-font-specification:'Lato Ultra-Light'"
         id="path4866" />
      <path
         d="m 643.36089,927.04477 q -4.14,0 -6.48,-2.25 -2.34,-2.295 -2.34,-7.335 l 0,-31.995 -6.93,0 q -0.855,0 -0.855,-0.675 l 0,-0.81 7.785,-0.315 0.675,-17.1 q 0.045,-0.27 0.225,-0.495 0.18,-0.27 0.495,-0.27 l 0.99,0 0,17.865 14.67,0 0,1.8 -14.67,0 0,31.905 q 0,2.07 0.54,3.555 0.54,1.44 1.44,2.385 0.9,0.945 2.115,1.395 1.26,0.405 2.7,0.405 1.755,0 3.06,-0.54 1.35,-0.54 2.295,-1.17 0.945,-0.63 1.53,-1.17 0.585,-0.54 0.855,-0.54 0.225,0 0.495,0.27 l 0.585,0.855 q -0.765,0.945 -1.8,1.71 -0.99,0.765 -2.205,1.35 -1.215,0.54 -2.52,0.855 -1.305,0.315 -2.655,0.315 z"
         style="font-style:normal;font-variant:normal;font-weight:200;font-stretch:normal;font-size:89.99999237px;font-family:Lato;-inkscape-font-specification:'Lato Ultra-Light'"
         id="path4868" />
      <path
         d="m 678.95448,881.23477 q 3.6,0 6.705,1.26 3.15,1.26 5.49,3.735 2.34,2.43 3.645,6.03 1.35,3.6 1.35,8.235 0,0.945 -0.81,0.945 l -33.615,0 q -0.045,0.45 -0.045,0.9 0,0.45 0,0.9 0,5.31 1.26,9.36 1.26,4.05 3.555,6.795 2.295,2.745 5.535,4.185 3.285,1.395 7.29,1.395 3.555,0 6.165,-0.765 2.61,-0.81 4.365,-1.755 1.755,-0.945 2.7,-1.71 0.99,-0.81 1.26,-0.81 0.36,0 0.585,0.27 l 0.585,0.675 q -0.9,1.125 -2.52,2.205 -1.62,1.08 -3.735,1.935 -2.07,0.81 -4.545,1.305 -2.43,0.54 -4.995,0.54 -4.545,0 -8.235,-1.575 -3.645,-1.62 -6.255,-4.635 -2.565,-3.015 -3.96,-7.38 -1.395,-4.41 -1.395,-10.035 0,-4.86 1.305,-8.865 1.35,-4.05 3.87,-6.975 2.52,-2.925 6.165,-4.545 3.645,-1.62 8.28,-1.62 z m 0.045,1.8 q -3.78,0 -6.795,1.215 -2.97,1.215 -5.13,3.42 -2.16,2.205 -3.51,5.31 -1.305,3.105 -1.71,6.885 l 32.13,0 q 0,-4.005 -1.17,-7.11 -1.125,-3.15 -3.15,-5.31 -1.98,-2.16 -4.725,-3.285 -2.745,-1.125 -5.94,-1.125 z"
         style="font-style:normal;font-variant:normal;font-weight:200;font-stretch:normal;font-size:89.99999237px;font-family:Lato;-inkscape-font-specification:'Lato Ultra-Light'"
         id="path4870" />
      <path
         d="m 708.66152,926.32477 0,-44.37 1.125,0 q 0.855,0 0.9,0.9 l 0.27,7.695 q 3.10499,-4.275 7.37999,-6.795 4.275,-2.52 9.405,-2.52 3.69,0 6.435,1.17 2.79,1.125 4.59,3.285 1.845,2.115 2.745,5.22 0.945,3.105 0.945,7.02 l 0,28.395 -2.385,0 0,-28.395 q 0,-3.465 -0.765,-6.21 -0.765,-2.745 -2.385,-4.635 -1.575,-1.935 -3.96,-2.925 -2.385,-1.035 -5.625,-1.035 -4.86,0 -9,2.565 -4.14,2.52 -7.28999,7.02 l 0,33.615 -2.385,0 z"
         style="font-style:normal;font-variant:normal;font-weight:200;font-stretch:normal;font-size:89.99999237px;font-family:Lato;-inkscape-font-specification:'Lato Ultra-Light'"
         id="path4872" />
      <path
         d="m 768.69292,927.04477 q -4.14,0 -6.48,-2.25 -2.34,-2.295 -2.34,-7.335 l 0,-31.995 -6.93,0 q -0.855,0 -0.855,-0.675 l 0,-0.81 7.785,-0.315 0.675,-17.1 q 0.045,-0.27 0.225,-0.495 0.18,-0.27 0.495,-0.27 l 0.99,0 0,17.865 14.67,0 0,1.8 -14.67,0 0,31.905 q 0,2.07 0.54,3.555 0.54,1.44 1.44,2.385 0.9,0.945 2.115,1.395 1.26,0.405 2.7,0.405 1.755,0 3.06,-0.54 1.35,-0.54 2.295,-1.17 0.945,-0.63 1.53,-1.17 0.585,-0.54 0.855,-0.54 0.225,0 0.495,0.27 l 0.585,0.855 q -0.765,0.945 -1.8,1.71 -0.99,0.765 -2.205,1.35 -1.215,0.54 -2.52,0.855 -1.305,0.315 -2.655,0.315 z"
         style="font-style:normal;font-variant:normal;font-weight:200;font-stretch:normal;font-size:89.99999237px;font-family:Lato;-inkscape-font-specification:'Lato Ultra-Light'"
         id="path4874" />
      <path
         d="m 810.99151,886.49977 q -0.225,0.405 -0.675,0.405 -0.405,0 -1.17,-0.585 -0.72,-0.63 -2.025,-1.305 -1.305,-0.72 -3.285,-1.305 -1.935,-0.63 -4.815,-0.63 -2.655,0 -4.86,0.81 -2.15999,0.765 -3.73499,2.07 -1.575,1.305 -2.43,3.06 -0.855,1.755 -0.855,3.645 0,2.25 1.08,3.78 1.125,1.53 2.925,2.61 1.79999,1.035 4.09499,1.8 2.295,0.72 4.68,1.485 2.385,0.72 4.68,1.575 2.295,0.855 4.095,2.115 1.8,1.26 2.88,3.105 1.125,1.845 1.125,4.545 0,2.79 -0.99,5.22 -0.99,2.43 -2.925,4.275 -1.89,1.8 -4.68,2.835 -2.745,1.035 -6.3,1.035 -2.385,0 -4.32,-0.405 -1.93499,-0.36 -3.59999,-1.035 -1.665,-0.72 -3.105,-1.71 -1.44,-0.99 -2.79,-2.205 l 0.585,-0.765 q 0.18,-0.225 0.315,-0.315 0.18,-0.135 0.54,-0.135 0.45,0 1.26,0.765 0.855,0.72 2.25,1.62 1.44,0.9 3.6,1.665 2.15999,0.72 5.30999,0.72 3.105,0 5.445,-0.855 2.385,-0.9 3.96,-2.43 1.62,-1.53 2.43,-3.555 0.81,-2.07 0.81,-4.365 0,-2.43 -1.125,-4.05 -1.08,-1.62 -2.88,-2.7 -1.8,-1.125 -4.095,-1.89 -2.295,-0.765 -4.68,-1.485 -2.385,-0.72 -4.68,-1.53 -2.29499,-0.855 -4.09499,-2.07 -1.8,-1.26 -2.925,-3.06 -1.08,-1.8 -1.08,-4.5 0,-2.25 0.99,-4.32 1.035,-2.115 2.88,-3.69 1.845,-1.62 4.40999,-2.565 2.61,-0.945 5.805,-0.945 3.87,0 6.84,1.08 2.97,1.08 5.625,3.42 l -0.495,0.765 z"
         style="font-style:normal;font-variant:normal;font-weight:200;font-stretch:normal;font-size:89.99999237px;font-family:Lato;-inkscape-font-specification:'Lato Ultra-Light'"
         id="path4876" />
    </g>
  </g>
</svg>
