<?xml version="1.0" encoding="UTF-8" standalone="no"?>
<!-- Generator: Adobe Illustrator 19.0.0, SVG Export Plug-In . SVG Version: 6.00 Build 0)  -->

<svg
   xmlns:dc="http://purl.org/dc/elements/1.1/"
   xmlns:cc="http://creativecommons.org/ns#"
   xmlns:rdf="http://www.w3.org/1999/02/22-rdf-syntax-ns#"
   xmlns:svg="http://www.w3.org/2000/svg"
   xmlns="http://www.w3.org/2000/svg"
   xmlns:xlink="http://www.w3.org/1999/xlink"
   xmlns:sodipodi="http://sodipodi.sourceforge.net/DTD/sodipodi-0.dtd"
   xmlns:inkscape="http://www.inkscape.org/namespaces/inkscape"
   version="1.1"
   id="Layer_1"
   x="0px"
   y="0px"
   viewBox="0 0 200 199.99999"
   xml:space="preserve"
   sodipodi:docname="intro-img.svg"
   width="200"
   height="200"
   inkscape:version="0.92.1 r15371"><metadata
     id="metadata762"><rdf:RDF><cc:Work
         rdf:about=""><dc:format>image/svg+xml</dc:format><dc:type
           rdf:resource="http://purl.org/dc/dcmitype/StillImage" /><dc:title></dc:title></cc:Work></rdf:RDF></metadata><defs
     id="defs760"><defs
       id="defs438"><rect
         height="192.2"
         width="78.800003"
         y="1.7"
         x="66"
         id="SVGID_31_" /></defs><clipPath
       id="SVGID_32_"><use
         id="use440"
         style="overflow:visible"
         xlink:href="#SVGID_31_"
         x="0"
         y="0"
         width="100%"
         height="100%" /></clipPath></defs><sodipodi:namedview
     pagecolor="#ffffff"
     bordercolor="#666666"
     borderopacity="1"
     objecttolerance="10"
     gridtolerance="10"
     guidetolerance="10"
     inkscape:pageopacity="0"
     inkscape:pageshadow="2"
     inkscape:window-width="1600"
     inkscape:window-height="818"
     id="namedview758"
     showgrid="false"
     inkscape:zoom="2.1911232"
     inkscape:cx="190.10606"
     inkscape:cy="108.30285"
     inkscape:window-x="0"
     inkscape:window-y="0"
     inkscape:window-maximized="1"
     inkscape:current-layer="Layer_1" /><style
     type="text/css"
     id="style2">
	.st0{clip-path:url(#SVGID_2_);fill:#D71F28;}
	.st1{clip-path:url(#SVGID_2_);fill:#FFFFFF;}
	.st2{clip-path:url(#SVGID_2_);fill:#28B29E;}
	.st3{clip-path:url(#SVGID_4_);fill:#FFDD73;}
	.st4{clip-path:url(#SVGID_4_);fill:#D71F28;}
	.st5{clip-path:url(#SVGID_4_);fill:#FFFFFF;}
	.st6{clip-path:url(#SVGID_4_);fill:#163A64;}
	.st7{clip-path:url(#SVGID_4_);fill:#CCD0D4;}
	.st8{clip-path:url(#SVGID_4_);fill:#CB7D55;}
	.st9{clip-path:url(#SVGID_4_);fill:#3BAA9C;}
	.st10{clip-path:url(#SVGID_4_);fill:#221718;}
	.st11{clip-path:url(#SVGID_4_);fill:#D99F7C;}
	.st12{clip-path:url(#SVGID_4_);fill:#F7B37B;}
	.st13{clip-path:url(#SVGID_4_);fill:#E56859;}
	.st14{clip-path:url(#SVGID_4_);fill:#D6D0CD;}
	.st15{clip-path:url(#SVGID_4_);fill:#867C78;}
	.st16{clip-path:url(#SVGID_6_);fill:#FFFFFF;}
	.st17{clip-path:url(#SVGID_6_);fill:#163A64;}
	.st18{display:none;}
	.st19{display:inline;}
	.st20{display:inline;clip-path:url(#SVGID_8_);fill:none;stroke:#FFFFFF;stroke-width:1.17;}
	.st21{clip-path:url(#SVGID_10_);fill:#F3C8AA;}
	.st22{clip-path:url(#SVGID_10_);fill:#1C1015;}
	.st23{clip-path:url(#SVGID_10_);fill:#D71F29;}
	.st24{clip-path:url(#SVGID_10_);}
	.st25{clip-path:url(#SVGID_12_);}
	.st26{clip-path:url(#SVGID_14_);fill:#867C78;}
	.st27{clip-path:url(#SVGID_10_);fill:#C67C59;}
	.st28{clip-path:url(#SVGID_16_);}
	.st29{clip-path:url(#SVGID_18_);fill:#D6D0CD;}
	.st30{clip-path:url(#SVGID_10_);fill:#FFFFFF;}
	.st31{clip-path:url(#SVGID_10_);fill:#153659;}
	.st32{clip-path:url(#SVGID_10_);fill:#5E534F;}
	.st33{clip-path:url(#SVGID_20_);}
	.st34{clip-path:url(#SVGID_22_);fill:#867C78;}
	.st35{clip-path:url(#SVGID_24_);}
	.st36{clip-path:url(#SVGID_26_);fill:#867C78;}
	.st37{clip-path:url(#SVGID_28_);fill:#CB7D54;}
	.st38{clip-path:url(#SVGID_28_);fill:#35292B;}
	.st39{clip-path:url(#SVGID_28_);fill:#163A64;}
	.st40{clip-path:url(#SVGID_28_);fill:#FFFFFF;}
	.st41{clip-path:url(#SVGID_28_);fill:#E21F26;}
	.st42{clip-path:url(#SVGID_28_);fill:#231718;}
	.st43{clip-path:url(#SVGID_28_);fill:#D6D0CD;}
	.st44{clip-path:url(#SVGID_28_);fill:#867C78;}
	.st45{clip-path:url(#SVGID_28_);fill:#D71F29;}
	.st46{clip-path:url(#SVGID_28_);fill:#0D4672;}
	.st47{clip-path:url(#SVGID_28_);fill-rule:evenodd;clip-rule:evenodd;fill:#231718;}
	.st48{clip-path:url(#SVGID_30_);fill:#231718;}
	.st49{clip-path:url(#SVGID_30_);fill:#FFFFFF;}
	.st50{clip-path:url(#SVGID_30_);fill:#90BDDF;}
	.st51{clip-path:url(#SVGID_30_);fill:#E21F26;}
	.st52{clip-path:url(#SVGID_30_);fill:#B1A6A5;}
	.st53{clip-path:url(#SVGID_30_);fill:#D6D0CD;}
	.st54{clip-path:url(#SVGID_30_);fill:#CCD0D4;}
	.st55{clip-path:url(#SVGID_30_);fill:#F5D0B2;}
	.st56{clip-path:url(#SVGID_30_);fill:#CB7D55;}
	.st57{clip-path:url(#SVGID_30_);fill-rule:evenodd;clip-rule:evenodd;fill:#CB7D55;}
	.st58{clip-path:url(#SVGID_32_);fill:#CB7D55;}
	.st59{clip-path:url(#SVGID_32_);fill:#163A64;}
	.st60{clip-path:url(#SVGID_32_);fill:#90BDDF;}
	.st61{clip-path:url(#SVGID_32_);fill:#F5D0B2;}
	.st62{clip-path:url(#SVGID_32_);fill:#221718;}
	.st63{clip-path:url(#SVGID_32_);fill:#EEBC35;}
	.st64{clip-path:url(#SVGID_32_);fill:#FFFFFF;}
	.st65{clip-path:url(#SVGID_32_);fill:#5C544F;}
	.st66{clip-path:url(#SVGID_32_);fill:#E21F26;}
	.st67{clip-path:url(#SVGID_32_);fill:#D6D0CD;}
	.st68{clip-path:url(#SVGID_32_);fill:#D71F28;}
	.st69{clip-path:url(#SVGID_32_);fill:#B1A6A5;}
	.st70{clip-path:url(#SVGID_34_);fill:#231718;}
	.st71{clip-path:url(#SVGID_34_);fill:#F5D0B2;}
	.st72{clip-path:url(#SVGID_34_);fill:#90BDDF;}
	.st73{clip-path:url(#SVGID_34_);fill:#D71F29;}
	.st74{clip-path:url(#SVGID_34_);fill:#251B1C;}
	.st75{clip-path:url(#SVGID_34_);fill:#5C5450;}
	.st76{clip-path:url(#SVGID_34_);fill:#FFFFFF;}
	.st77{clip-path:url(#SVGID_36_);fill:#E21F26;}
	.st78{clip-path:url(#SVGID_36_);fill:#F5D0B2;}
	.st79{clip-path:url(#SVGID_36_);fill:#CB7D55;}
	.st80{clip-path:url(#SVGID_36_);fill:#FFFFFF;}
	.st81{clip-path:url(#SVGID_36_);fill:#231718;}
	.st82{clip-path:url(#SVGID_36_);}
	.st83{clip-path:url(#SVGID_38_);}
	.st84{clip-path:url(#SVGID_40_);fill:#ACB5BC;}
	.st85{clip-path:url(#SVGID_36_);fill:#D6D0CD;}
	.st86{clip-path:url(#SVGID_42_);fill:#F5D0B2;}
	.st87{clip-path:url(#SVGID_42_);fill:#E15A28;}
	.st88{clip-path:url(#SVGID_42_);fill:#35292B;}
	.st89{clip-path:url(#SVGID_42_);fill:#163A64;}
	.st90{clip-path:url(#SVGID_42_);fill:#FFFFFF;}
	.st91{clip-path:url(#SVGID_42_);fill:#D99F7C;}
	.st92{clip-path:url(#SVGID_42_);fill-rule:evenodd;clip-rule:evenodd;fill:#E15A28;}
	.st93{clip-path:url(#SVGID_42_);fill:#231718;}
	.st94{clip-path:url(#SVGID_42_);fill:#E21F26;}
	.st95{clip-path:url(#SVGID_42_);fill:#D6D0CD;}
	.st96{clip-path:url(#SVGID_42_);fill:#867C78;}
	.st97{clip-path:url(#SVGID_42_);fill:#D71F29;}
	.st98{clip-path:url(#SVGID_42_);fill:#0D4672;}
</style><g
     id="XMLID_1_"
     class="st18"
     style="display:none"
     transform="translate(0,-17.100006)"><defs
       id="defs129"><rect
         id="SVGID_7_"
         x="-1270.6"
         y="-248.89999"
         width="2700"
         height="7946.7002" /></defs><clipPath
       id="SVGID_8_"
       class="st19"
       style="display:inline"><use
         xlink:href="#SVGID_7_"
         style="overflow:visible"
         id="use131"
         x="0"
         y="0"
         width="100%"
         height="100%" /></clipPath><path
       class="st20"
       d="m 472.6,0 c 0,0 -12.9,0 -12.9,12.9 v 191.3 c 0,0 0,12.9 12.9,12.9 h 192.1 c 0,0 12.9,0 12.9,-12.9 V 12.9 c 0,0 0,-12.9 -12.9,-12.9 z"
       clip-path="url(#SVGID_8_)"
       id="path134"
       inkscape:connector-curvature="0"
       style="display:inline;fill:none;stroke:#ffffff;stroke-width:1.16999996" /></g><g
     id="g5493"
     transform="matrix(4.1365257,0,0,4.1365257,-695.21278,-232.59096)"><path
       sodipodi:nodetypes="cssscscccccc"
       transform="translate(86.941712,54.128579)"
       class="st61"
       d="m 119.9,31.5 v -7.4 c 0,-8.1 -6.5,-13.6 -14.6,-13.6 -8.1,0 -14.6,5.5 -14.6,13.6 v 7.4 c -1.4,0.4 -2.5,1.6 -2.5,3.1 0,1.6 1.1,2.9 2.6,3.2 0.6,5.2 4,9.5 8.6,11.5 3.95318,1.533005 8.71939,1.533005 11.8,0 4.6,-2 7.9,-6.4 8.6,-11.5 1.5,-0.3 2.6,-1.6 2.6,-3.2 -0.1,-1.4 -1.1,-2.7 -2.5,-3.1"
       clip-path="url(#SVGID_32_)"
       id="path463"
       inkscape:connector-curvature="0"
       style="fill:#f5d0b2" /><path
       transform="translate(86.941712,54.128579)"
       class="st62"
       d="m 113,33.4 c 0,0.5 -0.4,0.9 -0.9,0.9 -0.5,0 -0.9,-0.4 -0.9,-0.9 0,-0.5 0.4,-0.9 0.9,-0.9 0.5,0 0.9,0.3 0.9,0.9"
       clip-path="url(#SVGID_32_)"
       id="path467"
       inkscape:connector-curvature="0"
       style="fill:#221718" /><path
       transform="translate(86.941712,54.128579)"
       class="st62"
       d="m 99.7,33.4 c 0,0.5 -0.4,0.9 -0.9,0.9 -0.5,0 -0.9,-0.4 -0.9,-0.9 0,-0.5 0.4,-0.9 0.9,-0.9 0.5,0 0.9,0.3 0.9,0.9"
       clip-path="url(#SVGID_32_)"
       id="path469"
       inkscape:connector-curvature="0"
       style="fill:#221718" /><path
       transform="translate(86.441712,54.128579)"
       class="st63"
       d="m 115.7,30.5 c -0.4,0 -0.6,-0.1 -0.8,-0.2 -0.1,-0.1 -0.1,-0.1 -0.2,-0.1 -0.1,0 -0.1,0 -0.2,0.1 -0.2,0.1 -0.4,0.2 -0.8,0.2 -0.4,0 -0.6,-0.1 -0.8,-0.2 -0.1,-0.1 -0.1,-0.1 -0.2,-0.1 -0.1,0 -0.1,0 -0.2,0.1 -0.1,0.1 -0.4,0.2 -0.8,0.2 -0.4,0 -0.6,-0.1 -0.8,-0.2 -0.1,-0.1 -0.1,-0.1 -0.2,-0.1 -0.1,0 -0.1,0 -0.2,0.1 -0.2,0.1 -0.4,0.2 -0.8,0.2 -0.4,0 -0.6,-0.1 -0.8,-0.2 -0.1,-0.1 -0.1,-0.1 -0.2,-0.1 -0.3,0 -0.6,-0.3 -0.6,-0.6 0,-0.3 0.3,-0.6 0.6,-0.6 0.4,0 0.6,0.1 0.8,0.2 0.1,0.1 0.1,0.1 0.2,0.1 0.1,0 0.1,0 0.2,-0.1 0.2,-0.1 0.4,-0.2 0.8,-0.2 0.4,0 0.6,0.1 0.8,0.2 0.1,0.1 0.1,0.1 0.2,0.1 0.1,0 0.1,0 0.2,-0.1 0.2,-0.1 0.4,-0.2 0.8,-0.2 0.4,0 0.6,0.1 0.8,0.2 0.1,0.1 0.1,0.1 0.2,0.1 0.1,0 0.1,0 0.2,-0.1 0.1,-0.1 0.4,-0.2 0.8,-0.2 0.4,0 0.6,0.1 0.8,0.2 0.1,0.1 0.1,0.1 0.2,0.1 0.3,0 0.6,0.3 0.6,0.6 0,0.3 -0.3,0.6 -0.6,0.6"
       clip-path="url(#SVGID_32_)"
       id="path471"
       inkscape:connector-curvature="0"
       style="fill:#d68f4d;fill-opacity:1" /><path
       transform="translate(86.641712,54.128579)"
       class="st63"
       d="m 101.9,30.5 c -0.4,0 -0.6,-0.1 -0.8,-0.2 -0.1,-0.1 -0.1,-0.1 -0.2,-0.1 -0.1,0 -0.1,0 -0.2,0.1 -0.2,0.1 -0.4,0.2 -0.8,0.2 -0.4,0 -0.6,-0.1 -0.8,-0.2 -0.1,-0.1 -0.1,-0.1 -0.2,-0.1 -0.1,0 -0.1,0 -0.2,0.1 -0.1,0.1 -0.4,0.2 -0.8,0.2 -0.4,0 -0.6,-0.1 -0.8,-0.2 -0.1,-0.1 -0.1,-0.1 -0.2,-0.1 -0.1,0 -0.1,0 -0.2,0.1 -0.2,0.1 -0.4,0.2 -0.8,0.2 -0.4,0 -0.6,-0.1 -0.8,-0.2 -0.1,-0.1 -0.1,-0.1 -0.2,-0.1 -0.3,0 -0.6,-0.3 -0.6,-0.6 0,-0.3 0.3,-0.6 0.6,-0.6 0.4,0 0.6,0.1 0.8,0.2 0.1,0.1 0.1,0.1 0.2,0.1 0.1,0 0.1,0 0.2,-0.1 0.2,-0.1 0.4,-0.2 0.8,-0.2 0.4,0 0.6,0.1 0.8,0.2 0.1,0.1 0.1,0.1 0.2,0.1 0.1,0 0.1,0 0.2,-0.1 0.2,-0.1 0.4,-0.2 0.8,-0.2 0.4,0 0.6,0.1 0.8,0.2 0.1,0.1 0.1,0.1 0.2,0.1 0.1,0 0.1,0 0.2,-0.1 0.2,-0.1 0.4,-0.2 0.8,-0.2 0.4,0 0.6,0.1 0.8,0.2 0.1,0.1 0.1,0.1 0.2,0.1 0.3,0 0.6,0.3 0.6,0.6 0,0.3 -0.3,0.6 -0.6,0.6"
       clip-path="url(#SVGID_32_)"
       id="path473"
       inkscape:connector-curvature="0"
       style="fill:#d68f4d;fill-opacity:1" /><path
       transform="translate(86.941712,54.128579)"
       class="st63"
       d="M 120.3,14.6 C 118,8.4 107.7,9 105.5,2.1 c -10.1,1.2 -14.8,8 -13.4,13.5 -1.2,1.1 -1.9,2.6 -2.4,4.5 -0.7,3.2 -0.5,7.7 0.1,13.9 0.2,-0.2 0.3,-0.7 0.4,-1.3 H 94 V 20 c 0.1,-0.1 0.3,-0.3 0.4,-0.4 2.2,2 5.9,3.3 11,3.1 1,0 6.3,0.3 10.3,-1 v 10.6 h 3.7 c 0.2,0.9 0.3,1.5 0.5,1.7 0.6,-5.4 2.4,-13.9 0.4,-19.4"
       clip-path="url(#SVGID_32_)"
       id="path479"
       inkscape:connector-curvature="0"
       style="fill:#d68f4d;fill-opacity:1" /><path
       transform="translate(86.441712,55.028579)"
       class="st58"
       d="m 118,33.4 c -0.1,2.6 -2,4.5 -4.7,4.6 -0.1,0 -0.2,0 -0.3,0 -1.4,0 -3,-0.7 -4,-1.8 -1,-1.1 -1.5,-2.5 -1.4,-4.2 0.2,-2.3 4.9,-2.5 6.4,-2.5 0.8,0 1.4,0 1.7,0.1 1.7,0.4 2.4,1.5 2.3,3.8 m -16.1,2.9 c -1,1.1 -2.5,1.8 -4,1.8 -0.1,0 -0.2,0 -0.3,0 -2.8,-0.2 -4.6,-2 -4.7,-4.6 -0.1,-2.3 0.6,-3.5 2.3,-3.7 0.3,0 0.9,-0.1 1.7,-0.1 1.5,0 6.2,0.2 6.4,2.5 0.1,1.6 -0.4,3 -1.4,4.1 M 119.4,30 c -0.4,0 -1.1,-0.3 -1.8,-0.7 -0.5,-0.3 -1.1,-0.6 -1.8,-0.6 -0.3,0 -1,-0.1 -1.8,-0.1 -1.8,0 -5.7,0.2 -7,2.2 -0.4,-0.3 -1,-0.5 -1.5,-0.5 -0.6,0 -1.1,0.2 -1.5,0.5 -1.3,-2 -5.2,-2.2 -7,-2.2 -0.8,0 -1.5,0 -1.8,0.1 -0.7,0.1 -1.3,0.3 -1.8,0.6 -0.7,0.4 -1.5,0.7 -1.8,0.7 v 1.4 c 0.2,0 0.4,0 0.5,-0.1 -0.1,0.6 -0.2,1.3 -0.2,2.1 0.1,3.2 2.4,5.4 5.7,5.7 0.1,0 0.2,0 0.3,0 1.7,0 3.6,-0.8 4.8,-2.1 1.1,-1.2 1.7,-2.8 1.7,-4.6 0.2,-0.5 0.6,-0.8 1.1,-0.8 0.5,0 0.9,0.3 1.1,0.8 0,1.8 0.5,3.4 1.7,4.6 1.2,1.3 3,2.1 4.8,2.1 0.1,0 0.2,0 0.3,0 3.3,-0.2 5.6,-2.4 5.7,-5.7 0,-0.8 0,-1.5 -0.2,-2.1 0.2,0 0.4,0.1 0.5,0.1 z"
       clip-path="url(#SVGID_32_)"
       id="path481"
       inkscape:connector-curvature="0"
       style="fill:#2e333c;fill-opacity:1" /></g></svg>