<?xml version="1.0" encoding="UTF-8" standalone="no"?>
<!-- Created with Inkscape (http://www.inkscape.org/) -->

<svg
   xmlns:dc="http://purl.org/dc/elements/1.1/"
   xmlns:cc="http://creativecommons.org/ns#"
   xmlns:rdf="http://www.w3.org/1999/02/22-rdf-syntax-ns#"
   xmlns:svg="http://www.w3.org/2000/svg"
   xmlns="http://www.w3.org/2000/svg"
   xmlns:sodipodi="http://sodipodi.sourceforge.net/DTD/sodipodi-0.dtd"
   xmlns:inkscape="http://www.inkscape.org/namespaces/inkscape"
   width="944"
   height="320"
   viewBox="0 0 884.99996 299.99998"
   id="svg2"
   version="1.1"
   inkscape:version="0.92.1 r15371"
   sodipodi:docname="title.svg">
  <defs
     id="defs4" />
  <sodipodi:namedview
     id="base"
     pagecolor="#ffffff"
     bordercolor="#666666"
     borderopacity="1.0"
     inkscape:pageopacity="0.0"
     inkscape:pageshadow="2"
     inkscape:zoom="0.98994949"
     inkscape:cx="124.09074"
     inkscape:cy="123.18117"
     inkscape:document-units="px"
     inkscape:current-layer="layer1"
     showgrid="false"
     inkscape:window-width="1600"
     inkscape:window-height="818"
     inkscape:window-x="0"
     inkscape:window-y="0"
     inkscape:window-maximized="1"
     units="px" />
  <metadata
     id="metadata7">
    <rdf:RDF>
      <cc:Work
         rdf:about="">
        <dc:format>image/svg+xml</dc:format>
        <dc:type
           rdf:resource="http://purl.org/dc/dcmitype/StillImage" />
        <dc:title />
      </cc:Work>
    </rdf:RDF>
  </metadata>
  <g
     inkscape:label="Capa 1"
     inkscape:groupmode="layer"
     id="layer1"
     transform="translate(0,-752.36226)">
    <path
       inkscape:connector-curvature="0"
       id="path4198"
       d="m 160.57144,620.21939 v -128 h 128 128 v 128 128 h -128 -128 z"
       style="fill:#fefefd" />
    <g
       style="font-style:normal;font-weight:normal;font-size:40px;line-height:125%;font-family:sans-serif;letter-spacing:0px;word-spacing:0px;fill:#000000;fill-opacity:1;stroke:none;stroke-width:1px;stroke-linecap:butt;stroke-linejoin:miter;stroke-opacity:1"
       id="text4146">
      <g
         style="font-style:normal;font-weight:normal;font-size:40px;line-height:125%;font-family:sans-serif;letter-spacing:0px;word-spacing:0px;fill:#000000;fill-opacity:1;stroke:none;stroke-width:1px;stroke-linecap:butt;stroke-linejoin:miter;stroke-opacity:1"
         id="text4154" />
    </g>
    <g
       aria-label="Stanlee"
       style="font-style:normal;font-weight:normal;font-size:37.49999619px;line-height:125%;font-family:sans-serif;letter-spacing:-16.453125px;word-spacing:0px;fill:#b74141;fill-opacity:1;stroke:none;stroke-width:0.93749994px;stroke-linecap:butt;stroke-linejoin:miter;stroke-opacity:1"
       id="text37">
      <path
         d="m 345.13406,843.05227 q 7.92,9.36 7.92,11.16 0,1.8 -1.8,3.96 -8.46,9.54 -19.8,19.26 -2.52,2.16 -3.78,2.16 -1.8,0 -1.8,-2.7 0,-2.88 2.34,-7.56 2.52,-4.68 2.52,-5.4 0,-0.72 -0.72,-0.72 -0.54,0 -1.62,0.36 -20.7,7.38 -28.8,23.22 -1.8,3.59999 -1.8,5.93999 0,4.68 7.2,8.82 1.08,0.72 9.72,5.22 17.46,9.36 21.96,15.12 7.2,9 7.2,17.64 0,3.42 -1.98,7.2 -1.8,3.6 -4.68,5.4 -30.42,18.9 -54.18,18.9 -12.6,0 -12.6,-11.52 0,-3.78 2.52,-7.2 -4.32,-3.06 -4.32,-6.48 0,-3.6 4.86,-7.2 11.52,-8.64 37.08,-8.64 2.7,0 6.48,1.98 3.78,1.8 6.12,3.96 4.5,-2.52 4.5,-4.5 0,-1.98 -2.34,-3.96 -3.42,-2.52 -12.78,-6.66 -9.18,-4.14 -11.7,-5.58 -7.56,-4.32 -11.7,-12.42 -3.96,-8.1 -3.96,-17.09999 0,-9.18 4.5,-16.56 4.68,-7.56 12.96,-13.14 12.6,-8.46 31.5,-15.48 2.52,-0.72 3.96,-0.72 4.14,0 7.02,3.24 z m -34.2,99.71999 q -1.8,-0.36 -4.14,-0.36 -2.34,0 -9.18,2.16 -6.66,2.16 -6.66,4.86 0,1.08 1.26,1.08 4.86,0 18.72,-7.74 z"
         style="font-style:normal;font-variant:normal;font-weight:normal;font-stretch:normal;font-size:179.99998474px;font-family:Devonshire;-inkscape-font-specification:Devonshire;letter-spacing:-13.12499905px;word-spacing:0px;stroke-width:0.93749994px;fill:#b74141;fill-opacity:1"
         id="path97" />
      <path
         d="m 363.35718,888.05227 14.22,-0.72 q 5.58,0 5.58,7.19999 0,3.6 -2.34,5.4 -5.76,5.22 -19.8,7.2 -1.8,17.1 -1.8,28.44 0,11.34 1.62,11.34 1.08,0 7.56,-5.76 6.48,-5.76 7.2,-5.76 3.06,0 3.06,9.36 0,9.18 -3.42,18.18 -3.42,9 -9.72,9 -2.7,0 -5.4,-1.98 -2.7,-1.8 -4.14,-3.6 -1.26,-1.98 -3.78,-5.76 -2.34,-3.78 -2.88,-4.5 -4.86,-6.66 -5.4,-13.14 -0.36,-6.66 -0.36,-15.48 0,-8.82 1.08,-19.08 -5.58,-0.18 -9.36,-3.96 -3.6,-3.78 -5.58,-9 -2.16,-5.4 -2.16,-6.12 0,-2.33999 2.7,-2.33999 l 17.28,1.08 q 0.9,-5.58 2.88,-15.48 3.06,-14.4 3.06,-16.74 l -0.36,-3.42 q 0,-2.88 3.24,-2.88 3.24,0 7.92,3.24 4.68,3.24 4.68,6.12 0,1.26 -1.26,5.04 -1.62,5.76 -4.32,24.12 z"
         style="font-style:normal;font-variant:normal;font-weight:normal;font-stretch:normal;font-size:179.99998474px;font-family:Devonshire;-inkscape-font-specification:Devonshire;letter-spacing:-13.12499905px;word-spacing:0px;stroke-width:0.93749994px;fill:#b74141;fill-opacity:1"
         id="path99" />
      <path
         d="m 411.8878,943.49226 q -14.76,26.46 -22.5,26.46 -5.58,0 -10.07999,-6.84 -1.26,-1.8 -2.7,-5.58 -1.44,-3.96 -3.6,-7.2 -1.98,-3.24 -1.98,-8.64 0,-5.58 2.16,-9.9 14.75999,-29.16 31.13999,-39.96 2.16,-1.62 5.04,-1.62 2.88,0 7.2,3.24 2.52,2.52 3.06,4.32 0.9,3.96 0.9,4.86 6.3,2.16 6.3,7.92 0,3.96 -2.16,18 -2.16,13.86 -2.52,20.7 0,3.78 2.52,3.78 2.88,0 10.26,-10.08 7.56,-10.08 8.64,-10.08 1.8,0 1.8,5.94 l -0.36,8.82 q 0,5.04 -4.5,13.86 -4.5,8.64 -11.52,8.64 -4.32,0 -6.84,-2.88 -0.9,-0.9 -2.7,-3.6 -5.58,-8.1 -7.56,-20.16 z m 1.62,-41.58 q -22.68,20.7 -28.8,47.34 18.18,-15.66 28.8,-47.34 z"
         style="font-style:normal;font-variant:normal;font-weight:normal;font-stretch:normal;font-size:179.99998474px;font-family:Devonshire;-inkscape-font-specification:Devonshire;letter-spacing:-13.12499905px;word-spacing:0px;stroke-width:0.93749994px;fill:#b74141;fill-opacity:1"
         id="path101" />
      <path
         d="m 494.51717,927.29226 q 0,8.82 -0.9,15.3 -0.9,6.48 -6.48,17.46 -5.58,10.8 -10.98,10.8 -2.34,0 -4.5,-2.52 -10.62,-12.78 -10.62,-24.3 0,-3.42 2.34,-15.66 3.24,-18.36 3.24,-20.34 0,-2.16 -0.72,-2.16 -0.54,0 -1.26,1.44 -4.68,8.28 -7.56,18.9 -2.88,10.44 -3.78,17.64 -0.9,7.2 -1.98,20.16 0,4.5 -2.34,4.5 -1.08,0 -3.6,-1.98 -9.72,-8.28 -9.72,-22.68 0,-6.12 1.08,-16.92 1.26,-10.8 1.44,-14.94 1.98,-25.01999 4.86,-25.01999 1.62,0 2.34,3.59999 0.72,3.42 0.72,7.92 0,4.32 0.18,7.92 0.36,3.6 1.44,3.6 1.08,0 3.06,-5.76 1.98,-5.76 5.76,-11.52 3.96,-5.93999 8.46,-5.93999 4.5,0 7.92,1.97999 7.74,3.96 7.74,16.56 0,4.32 -1.08,10.62 -1.08,6.3 -1.98,13.86 -0.72,7.38 -0.72,8.46 0,0.9 0.72,0.9 1.44,0 7.2,-7.2 5.94,-7.2 8.1,-7.2 1.62,0 1.62,2.52 z"
         style="font-style:normal;font-variant:normal;font-weight:normal;font-stretch:normal;font-size:179.99998474px;font-family:Devonshire;-inkscape-font-specification:Devonshire;letter-spacing:-13.12499905px;word-spacing:0px;stroke-width:0.93749994px;fill:#b74141;fill-opacity:1"
         id="path103" />
      <path
         d="m 498.05342,840.35227 -0.9,-5.4 q 0,-2.16 2.34,-2.16 0.9,0 2.34,0.36 10.8,2.16 10.8,12.42 0,2.52 -0.54,5.58 -0.54,2.88 -2.16,12.24 -1.44,9.36 -2.16,13.5 l -1.8,12.41999 q -4.32,28.44 -4.32,52.38 0,5.22 2.52,5.22 0.9,0 1.98,-1.08 12.6,-15.84 14.58,-19.26 2.16,-3.6 3.06,-3.6 1.08,0 1.08,2.52 0,2.34 -1.08,9.18 -0.9,6.66 -1.08,8.64 -0.18,1.8 -0.9,4.14 -0.54,2.34 -1.08,3.78 -0.36,1.26 -1.8,3.78 -1.44,2.34 -1.98,3.06 -3.78,5.04 -6.12,7.92 -2.16,2.7 -5.22,2.7 -2.88,0 -5.58,-2.7 -2.7,-2.7 -3.96,-4.86 -1.08,-2.16 -3.24,-6.66 -6.3,-12.24 -6.3,-25.74 0,-11.52 2.52,-28.26 2.7,-16.73999 3.24,-20.87999 -4.14,0 -4.14,-3.6 0,-1.44 0.36,-2.7 0.54,-1.44 3.42,-10.08 6.12,-17.46 6.12,-22.86 z"
         style="font-style:normal;font-variant:normal;font-weight:normal;font-stretch:normal;font-size:179.99998474px;font-family:Devonshire;-inkscape-font-specification:Devonshire;letter-spacing:-13.12499905px;word-spacing:0px;stroke-width:0.93749994px;fill:#b74141;fill-opacity:1"
         id="path105" />
      <path
         d="m 568.67061,943.49226 q 0,27.36 -27.72,27.36 -11.52,0 -16.92,-5.94 -5.22,-5.94 -9.18,-18.18 -1.44,-4.68 -1.44,-9.9 0,-5.4 4.68,-14.22 4.86,-9 10.62,-15.66 0.72,-9.9 4.5,-9.9 1.98,0 2.7,2.34 3.78,-3.42 9.18,-6.66 5.4,-3.24 9.72,-3.24 4.32,0 8.82,5.04 4.68,5.04 4.68,10.44 0,5.22 -7.38,14.4 -13.86,17.28 -21.78,17.28 -5.76,0 -9,-9.54 -0.18,0.36 -1.8,3.06 -1.44,2.52 -2.16,3.78 -0.54,1.26 -1.62,3.42 -1.8,4.14 -1.8,7.38 0,7.38 7.38,7.38 12.24,0 20.7,-5.04 8.64,-5.22 17.1,-15.66 0.72,7.92 0.72,12.06 z m -29.34,-21.78 q 2.88,0 8.46,-7.02 5.76,-7.02 5.76,-9.54 0,-2.7 -1.98,-2.7 -1.8,0 -6.48,4.68 -4.5,4.68 -7.2,8.1 -0.36,2.16 -0.36,3.24 0,3.24 1.8,3.24 z"
         style="font-style:normal;font-variant:normal;font-weight:normal;font-stretch:normal;font-size:179.99998474px;font-family:Devonshire;-inkscape-font-specification:Devonshire;letter-spacing:-13.12499905px;word-spacing:0px;stroke-width:0.93749994px;fill:#b74141;fill-opacity:1"
         id="path107" />
      <path
         d="m 616.3659,943.49226 q 0,27.36 -27.71999,27.36 -11.52,0 -16.92,-5.94 -5.22,-5.94 -9.18,-18.18 -1.44,-4.68 -1.44,-9.9 0,-5.4 4.68,-14.22 4.86,-9 10.62,-15.66 0.72,-9.9 4.5,-9.9 1.98,0 2.7,2.34 3.78,-3.42 9.18,-6.66 5.39999,-3.24 9.71999,-3.24 4.32,0 8.82,5.04 4.68,5.04 4.68,10.44 0,5.22 -7.38,14.4 -13.85999,17.28 -21.77999,17.28 -5.76,0 -9,-9.54 -0.18,0.36 -1.8,3.06 -1.44,2.52 -2.16,3.78 -0.54,1.26 -1.62,3.42 -1.8,4.14 -1.8,7.38 0,7.38 7.38,7.38 12.24,0 20.69999,-5.04 8.64,-5.22 17.1,-15.66 0.72,7.92 0.72,12.06 z m -29.33999,-21.78 q 2.88,0 8.46,-7.02 5.75999,-7.02 5.75999,-9.54 0,-2.7 -1.98,-2.7 -1.8,0 -6.47999,4.68 -4.5,4.68 -7.2,8.1 -0.36,2.16 -0.36,3.24 0,3.24 1.8,3.24 z"
         style="font-style:normal;font-variant:normal;font-weight:normal;font-stretch:normal;font-size:179.99998474px;font-family:Devonshire;-inkscape-font-specification:Devonshire;letter-spacing:-13.12499905px;word-spacing:0px;stroke-width:0.93749994px;fill:#b74141;fill-opacity:1"
         id="path109" />
    </g>
  </g>
</svg>
