<?xml version="1.0" encoding="UTF-8" standalone="no"?>
<!-- Created with Inkscape (http://www.inkscape.org/) -->

<svg
   xmlns:dc="http://purl.org/dc/elements/1.1/"
   xmlns:cc="http://creativecommons.org/ns#"
   xmlns:rdf="http://www.w3.org/1999/02/22-rdf-syntax-ns#"
   xmlns:svg="http://www.w3.org/2000/svg"
   xmlns="http://www.w3.org/2000/svg"
   xmlns:sodipodi="http://sodipodi.sourceforge.net/DTD/sodipodi-0.dtd"
   xmlns:inkscape="http://www.inkscape.org/namespaces/inkscape"
   width="885"
   height="300"
   viewBox="0 0 884.99996 299.99998"
   id="svg2"
   version="1.1"
   inkscape:version="0.91 r13725"
   sodipodi:docname="title.svg">
  <defs
     id="defs4" />
  <sodipodi:namedview
     id="base"
     pagecolor="#ffffff"
     bordercolor="#666666"
     borderopacity="1.0"
     inkscape:pageopacity="0.0"
     inkscape:pageshadow="2"
     inkscape:zoom="0.98994949"
     inkscape:cx="307.81682"
     inkscape:cy="174.63164"
     inkscape:document-units="px"
     inkscape:current-layer="layer1"
     showgrid="false"
     inkscape:window-width="1600"
     inkscape:window-height="873"
     inkscape:window-x="0"
     inkscape:window-y="27"
     inkscape:window-maximized="1"
     units="px" />
  <metadata
     id="metadata7">
    <rdf:RDF>
      <cc:Work
         rdf:about="">
        <dc:format>image/svg+xml</dc:format>
        <dc:type
           rdf:resource="http://purl.org/dc/dcmitype/StillImage" />
        <dc:title />
      </cc:Work>
    </rdf:RDF>
  </metadata>
  <g
     inkscape:label="Capa 1"
     inkscape:groupmode="layer"
     id="layer1"
     transform="translate(0,-752.36226)">
    <path
       inkscape:connector-curvature="0"
       id="path4198"
       d="m 160.57144,620.21939 0,-128 128,0 128,0 0,128 0,128 -128,0 -128,0 0,-128 z"
       style="fill:#fefefd" />
    <g
       style="font-style:normal;font-weight:normal;font-size:40px;line-height:125%;font-family:sans-serif;letter-spacing:0px;word-spacing:0px;fill:#000000;fill-opacity:1;stroke:none;stroke-width:1px;stroke-linecap:butt;stroke-linejoin:miter;stroke-opacity:1"
       id="text4146">
      <g
         style="font-style:normal;font-weight:normal;font-size:40px;line-height:125%;font-family:sans-serif;letter-spacing:0px;word-spacing:0px;fill:#000000;fill-opacity:1;stroke:none;stroke-width:1px;stroke-linecap:butt;stroke-linejoin:miter;stroke-opacity:1"
         id="text4154" />
    </g>
    <g
       transform="translate(-117.70588,-2.7881391e-5)"
       style="font-style:normal;font-weight:normal;font-size:40px;line-height:125%;font-family:sans-serif;letter-spacing:0px;word-spacing:0px;fill:#000000;fill-opacity:1;stroke:none;stroke-width:1px;stroke-linecap:butt;stroke-linejoin:miter;stroke-opacity:1"
       id="text4799">
      <path
         inkscape:connector-curvature="0"
         d="m 310.18514,899.86477 0,26.46 -2.475,0 0,-63.27 15.12,0 q 10.71,0 16.245,4.59 5.58,4.59 5.58,13.77 0,4.005 -1.575,7.425 -1.53,3.375 -4.41,5.85 -2.88,2.43 -6.93,3.825 -4.005,1.35 -8.91,1.35 l -12.645,0 z m 0,-2.025 12.645,0 q 4.455,0 8.01,-1.26 3.6,-1.26 6.075,-3.465 2.52,-2.205 3.87,-5.22 1.35,-3.015 1.35,-6.48 0,-8.01 -4.815,-12.195 -4.815,-4.185 -14.49,-4.185 l -12.645,0 0,32.805 z"
         style="font-style:normal;font-variant:normal;font-weight:200;font-stretch:normal;font-size:89.99999237px;font-family:Lato;-inkscape-font-specification:'Lato Ultra-Light'"
         id="path4854" />
      <path
         inkscape:connector-curvature="0"
         d="m 365.2117,941.21977 q -0.225,0.45 -0.54,0.81 -0.315,0.36 -0.9,0.36 l -1.575,0 7.65,-17.145 -18.99,-43.29 1.8,0 q 0.495,0 0.765,0.27 0.315,0.27 0.405,0.54 l 16.56,37.98 q 0.36,0.945 0.675,2.07 0.315,-0.945 0.765,-2.07 l 16.47,-37.98 q 0.18,-0.36 0.45,-0.585 0.315,-0.225 0.675,-0.225 l 1.665,0 -25.875,59.265 z"
         style="font-style:normal;font-variant:normal;font-weight:200;font-stretch:normal;font-size:89.99999237px;font-family:Lato;-inkscape-font-specification:'Lato Ultra-Light'"
         id="path4856" />
      <path
         inkscape:connector-curvature="0"
         d="m 404.40388,899.86477 0,26.46 -2.475,0 0,-63.27 15.12,0 q 10.71,0 16.245,4.59 5.58,4.59 5.58,13.77 0,4.005 -1.575,7.425 -1.53,3.375 -4.41,5.85 -2.88,2.43 -6.93,3.825 -4.005,1.35 -8.91,1.35 l -12.645,0 z m 0,-2.025 12.645,0 q 4.455,0 8.01,-1.26 3.6,-1.26 6.075,-3.465 2.52,-2.205 3.87,-5.22 1.35,-3.015 1.35,-6.48 0,-8.01 -4.815,-12.195 -4.815,-4.185 -14.49,-4.185 l -12.645,0 0,32.805 z"
         style="font-style:normal;font-variant:normal;font-weight:200;font-stretch:normal;font-size:89.99999237px;font-family:Lato;-inkscape-font-specification:'Lato Ultra-Light'"
         id="path4858" />
      <path
         inkscape:connector-curvature="0"
         d="m 455.38044,926.32477 -2.475,0 0,-63.27 2.475,0 0,63.27 z"
         style="font-style:normal;font-variant:normal;font-weight:200;font-stretch:normal;font-size:89.99999237px;font-family:Lato;-inkscape-font-specification:'Lato Ultra-Light'"
         id="path4860" />
      <path
         inkscape:connector-curvature="0"
         d="m 521.71043,916.91977 q 0.18,0 0.495,0.225 l 0.945,0.99 q -1.98,1.98 -4.275,3.645 -2.295,1.62 -5.04,2.79 -2.745,1.17 -6.03,1.8 -3.24,0.675 -7.155,0.675 -6.43499,0 -11.87999,-2.25 -5.4,-2.295 -9.315,-6.48 -3.915,-4.23 -6.12,-10.215 -2.205,-5.985 -2.205,-13.41 0,-7.245 2.205,-13.185 2.205,-5.985 6.21,-10.215 4.05,-4.275 9.63,-6.615 5.625,-2.34 12.37499,-2.34 6.345,0 11.25,1.935 4.905,1.935 9.135,5.58 l -0.675,0.99 q -0.18,0.315 -0.72,0.315 -0.27,0 -0.945,-0.495 -0.63,-0.495 -1.71,-1.215 -1.035,-0.765 -2.565,-1.62 -1.485,-0.9 -3.51,-1.62 -2.025,-0.765 -4.59,-1.26 -2.565,-0.495 -5.67,-0.495 -6.11999,0 -11.24999,2.115 -5.13,2.115 -8.82,6.03 -3.69,3.915 -5.76,9.54 -2.025,5.58 -2.025,12.555 0,7.11 2.025,12.735 2.07,5.58 5.715,9.495 3.645,3.87 8.595,5.94 4.95,2.07 10.75499,2.07 3.645,0 6.525,-0.495 2.88,-0.495 5.265,-1.485 2.43,-0.99 4.455,-2.43 2.07,-1.44 4.095,-3.285 0.315,-0.315 0.585,-0.315 z"
         style="font-style:normal;font-variant:normal;font-weight:200;font-stretch:normal;font-size:89.99999237px;font-family:Lato;-inkscape-font-specification:'Lato Ultra-Light'"
         id="path4862" />
      <path
         inkscape:connector-curvature="0"
         d="m 550.5484,881.23477 q 4.725,0 8.37,1.665 3.69,1.62 6.21,4.635 2.52,2.97 3.825,7.2 1.305,4.23 1.305,9.405 0,5.175 -1.305,9.405 -1.305,4.185 -3.825,7.155 -2.52,2.97 -6.21,4.59 -3.645,1.575 -8.37,1.575 -4.725,0 -8.415,-1.575 -3.64499,-1.62 -6.16499,-4.59 -2.52,-2.97 -3.825,-7.155 -1.305,-4.23 -1.305,-9.405 0,-5.175 1.305,-9.405 1.305,-4.23 3.825,-7.2 2.52,-3.015 6.16499,-4.635 3.69,-1.665 8.415,-1.665 z m 0,43.74 q 4.32,0 7.56,-1.485 3.24,-1.485 5.4,-4.23 2.205,-2.745 3.285,-6.57 1.08,-3.825 1.08,-8.55 0,-4.725 -1.08,-8.595 -1.08,-3.87 -3.285,-6.615 -2.16,-2.79 -5.4,-4.275 -3.24,-1.53 -7.56,-1.53 -4.32,0 -7.56,1.53 -3.23999,1.485 -5.44499,4.275 -2.16,2.745 -3.24,6.615 -1.08,3.87 -1.08,8.595 0,4.725 1.08,8.55 1.08,3.825 3.24,6.57 2.205,2.745 5.44499,4.23 3.24,1.485 7.56,1.485 z"
         style="font-style:normal;font-variant:normal;font-weight:200;font-stretch:normal;font-size:89.99999237px;font-family:Lato;-inkscape-font-specification:'Lato Ultra-Light'"
         id="path4864" />
      <path
         inkscape:connector-curvature="0"
         d="m 583.32948,926.32477 0,-44.37 1.125,0 q 0.855,0 0.9,0.9 l 0.27,7.695 q 3.105,-4.275 7.38,-6.795 4.275,-2.52 9.405,-2.52 3.69,0 6.435,1.17 2.79,1.125 4.59,3.285 1.845,2.115 2.745,5.22 0.945,3.105 0.945,7.02 l 0,28.395 -2.385,0 0,-28.395 q 0,-3.465 -0.765,-6.21 -0.765,-2.745 -2.385,-4.635 -1.575,-1.935 -3.96,-2.925 -2.385,-1.035 -5.625,-1.035 -4.86,0 -9,2.565 -4.14,2.52 -7.29,7.02 l 0,33.615 -2.385,0 z"
         style="font-style:normal;font-variant:normal;font-weight:200;font-stretch:normal;font-size:89.99999237px;font-family:Lato;-inkscape-font-specification:'Lato Ultra-Light'"
         id="path4866" />
      <path
         inkscape:connector-curvature="0"
         d="m 643.36089,927.04477 q -4.14,0 -6.48,-2.25 -2.34,-2.295 -2.34,-7.335 l 0,-31.995 -6.93,0 q -0.855,0 -0.855,-0.675 l 0,-0.81 7.785,-0.315 0.675,-17.1 q 0.045,-0.27 0.225,-0.495 0.18,-0.27 0.495,-0.27 l 0.99,0 0,17.865 14.67,0 0,1.8 -14.67,0 0,31.905 q 0,2.07 0.54,3.555 0.54,1.44 1.44,2.385 0.9,0.945 2.115,1.395 1.26,0.405 2.7,0.405 1.755,0 3.06,-0.54 1.35,-0.54 2.295,-1.17 0.945,-0.63 1.53,-1.17 0.585,-0.54 0.855,-0.54 0.225,0 0.495,0.27 l 0.585,0.855 q -0.765,0.945 -1.8,1.71 -0.99,0.765 -2.205,1.35 -1.215,0.54 -2.52,0.855 -1.305,0.315 -2.655,0.315 z"
         style="font-style:normal;font-variant:normal;font-weight:200;font-stretch:normal;font-size:89.99999237px;font-family:Lato;-inkscape-font-specification:'Lato Ultra-Light'"
         id="path4868" />
      <path
         inkscape:connector-curvature="0"
         d="m 678.95448,881.23477 q 3.6,0 6.705,1.26 3.15,1.26 5.49,3.735 2.34,2.43 3.645,6.03 1.35,3.6 1.35,8.235 0,0.945 -0.81,0.945 l -33.615,0 q -0.045,0.45 -0.045,0.9 0,0.45 0,0.9 0,5.31 1.26,9.36 1.26,4.05 3.555,6.795 2.295,2.745 5.535,4.185 3.285,1.395 7.29,1.395 3.555,0 6.165,-0.765 2.61,-0.81 4.365,-1.755 1.755,-0.945 2.7,-1.71 0.99,-0.81 1.26,-0.81 0.36,0 0.585,0.27 l 0.585,0.675 q -0.9,1.125 -2.52,2.205 -1.62,1.08 -3.735,1.935 -2.07,0.81 -4.545,1.305 -2.43,0.54 -4.995,0.54 -4.545,0 -8.235,-1.575 -3.645,-1.62 -6.255,-4.635 -2.565,-3.015 -3.96,-7.38 -1.395,-4.41 -1.395,-10.035 0,-4.86 1.305,-8.865 1.35,-4.05 3.87,-6.975 2.52,-2.925 6.165,-4.545 3.645,-1.62 8.28,-1.62 z m 0.045,1.8 q -3.78,0 -6.795,1.215 -2.97,1.215 -5.13,3.42 -2.16,2.205 -3.51,5.31 -1.305,3.105 -1.71,6.885 l 32.13,0 q 0,-4.005 -1.17,-7.11 -1.125,-3.15 -3.15,-5.31 -1.98,-2.16 -4.725,-3.285 -2.745,-1.125 -5.94,-1.125 z"
         style="font-style:normal;font-variant:normal;font-weight:200;font-stretch:normal;font-size:89.99999237px;font-family:Lato;-inkscape-font-specification:'Lato Ultra-Light'"
         id="path4870" />
      <path
         inkscape:connector-curvature="0"
         d="m 708.66152,926.32477 0,-44.37 1.125,0 q 0.855,0 0.9,0.9 l 0.27,7.695 q 3.10499,-4.275 7.37999,-6.795 4.275,-2.52 9.405,-2.52 3.69,0 6.435,1.17 2.79,1.125 4.59,3.285 1.845,2.115 2.745,5.22 0.945,3.105 0.945,7.02 l 0,28.395 -2.385,0 0,-28.395 q 0,-3.465 -0.765,-6.21 -0.765,-2.745 -2.385,-4.635 -1.575,-1.935 -3.96,-2.925 -2.385,-1.035 -5.625,-1.035 -4.86,0 -9,2.565 -4.14,2.52 -7.28999,7.02 l 0,33.615 -2.385,0 z"
         style="font-style:normal;font-variant:normal;font-weight:200;font-stretch:normal;font-size:89.99999237px;font-family:Lato;-inkscape-font-specification:'Lato Ultra-Light'"
         id="path4872" />
      <path
         inkscape:connector-curvature="0"
         d="m 768.69292,927.04477 q -4.14,0 -6.48,-2.25 -2.34,-2.295 -2.34,-7.335 l 0,-31.995 -6.93,0 q -0.855,0 -0.855,-0.675 l 0,-0.81 7.785,-0.315 0.675,-17.1 q 0.045,-0.27 0.225,-0.495 0.18,-0.27 0.495,-0.27 l 0.99,0 0,17.865 14.67,0 0,1.8 -14.67,0 0,31.905 q 0,2.07 0.54,3.555 0.54,1.44 1.44,2.385 0.9,0.945 2.115,1.395 1.26,0.405 2.7,0.405 1.755,0 3.06,-0.54 1.35,-0.54 2.295,-1.17 0.945,-0.63 1.53,-1.17 0.585,-0.54 0.855,-0.54 0.225,0 0.495,0.27 l 0.585,0.855 q -0.765,0.945 -1.8,1.71 -0.99,0.765 -2.205,1.35 -1.215,0.54 -2.52,0.855 -1.305,0.315 -2.655,0.315 z"
         style="font-style:normal;font-variant:normal;font-weight:200;font-stretch:normal;font-size:89.99999237px;font-family:Lato;-inkscape-font-specification:'Lato Ultra-Light'"
         id="path4874" />
      <path
         inkscape:connector-curvature="0"
         d="m 810.99151,886.49977 q -0.225,0.405 -0.675,0.405 -0.405,0 -1.17,-0.585 -0.72,-0.63 -2.025,-1.305 -1.305,-0.72 -3.285,-1.305 -1.935,-0.63 -4.815,-0.63 -2.655,0 -4.86,0.81 -2.15999,0.765 -3.73499,2.07 -1.575,1.305 -2.43,3.06 -0.855,1.755 -0.855,3.645 0,2.25 1.08,3.78 1.125,1.53 2.925,2.61 1.79999,1.035 4.09499,1.8 2.295,0.72 4.68,1.485 2.385,0.72 4.68,1.575 2.295,0.855 4.095,2.115 1.8,1.26 2.88,3.105 1.125,1.845 1.125,4.545 0,2.79 -0.99,5.22 -0.99,2.43 -2.925,4.275 -1.89,1.8 -4.68,2.835 -2.745,1.035 -6.3,1.035 -2.385,0 -4.32,-0.405 -1.93499,-0.36 -3.59999,-1.035 -1.665,-0.72 -3.105,-1.71 -1.44,-0.99 -2.79,-2.205 l 0.585,-0.765 q 0.18,-0.225 0.315,-0.315 0.18,-0.135 0.54,-0.135 0.45,0 1.26,0.765 0.855,0.72 2.25,1.62 1.44,0.9 3.6,1.665 2.15999,0.72 5.30999,0.72 3.105,0 5.445,-0.855 2.385,-0.9 3.96,-2.43 1.62,-1.53 2.43,-3.555 0.81,-2.07 0.81,-4.365 0,-2.43 -1.125,-4.05 -1.08,-1.62 -2.88,-2.7 -1.8,-1.125 -4.095,-1.89 -2.295,-0.765 -4.68,-1.485 -2.385,-0.72 -4.68,-1.53 -2.29499,-0.855 -4.09499,-2.07 -1.8,-1.26 -2.925,-3.06 -1.08,-1.8 -1.08,-4.5 0,-2.25 0.99,-4.32 1.035,-2.115 2.88,-3.69 1.845,-1.62 4.40999,-2.565 2.61,-0.945 5.805,-0.945 3.87,0 6.84,1.08 2.97,1.08 5.625,3.42 l -0.495,0.765 z"
         style="font-style:normal;font-variant:normal;font-weight:200;font-stretch:normal;font-size:89.99999237px;font-family:Lato;-inkscape-font-specification:'Lato Ultra-Light'"
         id="path4876" />
    </g>
  </g>
</svg>
